<svg id="Capa_1" data-name="Capa 1" xmlns="http://www.w3.org/2000/svg" viewBox="0 0 257.21752 290.15562"><defs><style>.cls-1{fill:#d3d3d3;}.cls-2{fill:#898989;}.cls-11,.cls-16,.cls-3,.cls-8{fill:none;}.cls-10,.cls-3{stroke:#696969;stroke-width:0.1px;}.cls-10,.cls-11,.cls-16,.cls-3,.cls-8{stroke-miterlimit:10;}.cls-4{fill:#9b9b9b;}.cls-5{fill:#666;}.cls-6{fill:#545454;}.cls-7{fill:#606060;}.cls-8{stroke:#898989;stroke-width:0.25px;}.cls-9{fill:#a5a5a5;}.cls-10{fill:#fff;}.cls-11{stroke:#000;stroke-width:0.5px;}.cls-12{fill:#0096ff;}.cls-13{fill:#7a7a7a;}.cls-14{fill:#eaeaea;}.cls-15{fill:#f5f5f5;}.cls-16{stroke:#7a7a7a;stroke-width:0.15px;}</style></defs><title>E3D common parts v2</title><polygon class="cls-1" points="60.406 190.009 101.737 190.009 101.737 185.24 72.328 185.24 72.328 180.073 101.339 180.073 101.339 175.011 72.328 175.011 72.328 168.946 101.339 168.946 101.339 163.676 72.328 163.676 72.328 157.024 101.339 157.024 101.339 152.352 72.328 152.352 72.328 145.896 101.339 145.896 101.339 140.822 72.328 140.822 72.328 133.974 101.339 133.974 101.339 129.21 72.328 129.21 72.328 122.847 101.339 122.847 101.339 117.725 72.328 117.725 72.328 111.719 101.339 111.719 101.339 106.95 72.328 106.95 72.328 99.797 101.339 99.797 101.339 95.028 72.328 95.022 72.328 88.67 72.922 88.67 101.339 88.67 101.339 83.901 72.375 83.812 72.328 77.145 101.737 77.145 101.737 72.376 81.071 72.376 81.071 40.583 81.071 13.559 104.121 13.559 104.121 5.611 74.713 5.611 27.024 5.611 0 5.611 0 13.559 20.665 13.559 20.665 40.583 20.665 72.376 0 72.376 0 77.145 29.408 77.145 29.361 83.812 0.397 83.901 0.397 88.67 28.815 88.67 29.408 88.67 29.408 95.022 0.397 95.028 0.397 99.797 29.408 99.797 29.408 106.95 0.397 106.95 0.397 111.719 29.408 111.719 29.408 117.725 0.397 117.725 0.397 122.847 29.408 122.847 29.408 129.21 0.397 129.21 0.397 133.974 29.408 133.974 29.408 140.822 0.397 140.822 0.397 145.896 29.408 145.896 29.408 152.352 0.397 152.352 0.397 157.024 29.408 157.024 29.408 163.676 0.397 163.676 0.397 168.946 29.408 168.946 29.408 175.011 0.397 175.011 0.397 180.073 29.408 180.073 29.408 185.24 0 185.24 0 190.009 42.125 190.009 60.406 190.009"/><path class="cls-1" d="M327.64346,273.00442" transform="translate(-258.4944 -21)"/><polygon class="cls-2" points="0.13 238.639 0.13 250.606 2.97 253 79.665 253 82.506 249.809 82.506 202.735 80.375 200.341 2.97 200.341 0.13 202.735 0.13 231.458 0.13 238.639"/><path class="cls-3" d="M300.61969,128.34777" transform="translate(-258.4944 -21)"/><polyline class="cls-4" points="50.868 224.186 38.151 224.186 38.151 200.341 42.125 200.341 42.125 190.009 38.151 190.009 38.506 110 43.715 106.553 58.022 106.553 63.506 110 63.585 190.009 59.611 190.009 59.611 200.341 63.585 200.341 63.585 224.186 50.868 224.186"/><polygon class="cls-5" points="53.253 279.823 58.816 270.957 67.559 271.08 67.559 255.184 61.996 255.184 61.996 252.799 63.585 252.799 63.585 224.186 38.151 224.186 38.151 252.799 39.741 252.799 39.741 255.184 34.177 255.184 34.177 271.08 42.92 270.957 48.484 279.823 53.253 279.823"/><polyline class="cls-6" points="51.663 279.823 51.663 276.644 53.253 276.644 53.253 272.67 55.637 271.08 55.637 224.186 46.099 224.186 46.099 271.08 48.484 272.67 48.484 276.644 50.073 276.644 50.073 279.823 51.663 279.823"/><rect class="cls-7" x="267.14279" y="254.99993" width="16.80675" height="19.00003" transform="translate(292.59793 507.9999) rotate(180)"/><polygon class="cls-8" points="26.506 251.495 7.598 251.056 7.598 251.495 26.506 251.997 26.506 251.495"/><polygon class="cls-8" points="26.506 250.492 7.598 250.053 7.598 250.492 26.506 250.993 26.506 250.492"/><polygon class="cls-8" points="26.506 249.488 7.598 249.049 7.598 249.488 26.506 249.99 26.506 249.488"/><polygon class="cls-8" points="26.506 248.485 7.598 248.046 7.598 248.485 26.506 248.987 26.506 248.485"/><polygon class="cls-8" points="26.506 247.482 7.598 247.043 7.598 247.482 26.506 247.983 26.506 247.482"/><polygon class="cls-8" points="26.506 246.479 7.598 246.04 7.598 246.479 26.506 246.98 26.506 246.479"/><polygon class="cls-8" points="26.506 245.475 7.598 245.036 7.598 245.475 26.506 245.977 26.506 245.475"/><polygon class="cls-8" points="26.506 244.472 7.598 244.033 7.598 244.472 26.506 244.974 26.506 244.472"/><polygon class="cls-8" points="26.506 243.469 7.598 243.03 7.598 243.469 26.506 243.97 26.506 243.469"/><polygon class="cls-8" points="26.506 242.465 7.598 242.026 7.598 242.465 26.506 242.967 26.506 242.465"/><polygon class="cls-8" points="26.506 241.462 7.598 241.023 7.598 241.462 26.506 241.964 26.506 241.462"/><polygon class="cls-8" points="26.506 240.459 7.598 240.02 7.598 240.459 26.506 240.96 26.506 240.459"/><polygon class="cls-8" points="26.506 239.455 7.598 239.016 7.598 239.455 26.506 239.957 26.506 239.455"/><polygon class="cls-8" points="26.506 238.452 7.598 238.013 7.598 238.452 26.506 238.954 26.506 238.452"/><polygon class="cls-8" points="26.506 237.449 7.598 237.01 7.598 237.449 26.506 237.95 26.506 237.449"/><polygon class="cls-8" points="26.506 236.446 7.598 236.007 7.598 236.446 26.506 236.947 26.506 236.446"/><polygon class="cls-8" points="26.506 235.442 7.598 235.003 7.598 235.442 26.506 235.944 26.506 235.442"/><polygon class="cls-8" points="26.506 234.439 7.598 234 7.598 234.439 26.506 234.941 26.506 234.439"/><polygon class="cls-8" points="26.506 252.498 7.598 252.059 7.598 252.498 26.506 253 26.506 252.498"/><polyline class="cls-9" points="50.868 224.186 42.585 224.186 42.585 223.546 44.091 222.907 44.091 84.16 35.506 80 50.868 80.324"/><polyline class="cls-9" points="50.868 224.186 59.151 224.186 59.151 223.546 57.645 222.907 57.645 84.16 66.506 80 50.506 80"/><path class="cls-10" d="M302.6564,127.56951" transform="translate(-258.4944 -21)"/><line class="cls-11" x1="69.78582" y1="114.91655" x2="160.05349" y2="114.91655"/><path d="M328.4212,138.73637a2.81983,2.81983,0,1,1,2.8198-2.81982A2.82011,2.82011,0,0,1,328.4212,138.73637Z" transform="translate(-258.4944 -21)"/><line class="cls-11" x1="61.33614" y1="182.51401" x2="160.05349" y2="182.51401"/><path d="M319.97153,206.33383a2.81983,2.81983,0,1,1,2.81979-2.81982A2.82011,2.82011,0,0,1,319.97153,206.33383Z" transform="translate(-258.4944 -21)"/><line class="cls-11" x1="62.43828" y1="266.27609" x2="160.05349" y2="266.27609"/><path d="M321.07367,290.09592a2.81983,2.81983,0,1,1,2.81979-2.81983A2.82012,2.82012,0,0,1,321.07367,290.09592Z" transform="translate(-258.4944 -21)"/><path d="M428.68555,47.83154h-3.53028v-.644h7.77442v.644h-3.5293v9.16114h-.71484Z" transform="translate(-258.4944 -21)"/><path d="M439.874,53.50488H433.585a3.12843,3.12843,0,0,0,5.43457,1.89112l.40625.46191a3.50029,3.50029,0,0,1-2.75976,1.19092,3.58938,3.58938,0,0,1-3.76758-3.71192,3.49677,3.49677,0,0,1,3.502-3.7124,3.46159,3.46159,0,0,1,3.48731,3.68408C439.8877,53.36475,439.874,53.43457,439.874,53.50488Zm-6.27539-.54638h5.60352a2.80307,2.80307,0,0,0-5.60352,0Z" transform="translate(-258.4944 -21)"/><path d="M444.22559,46.543a2.18294,2.18294,0,0,1,1.44238.47656l-.28027.53223a1.68009,1.68009,0,0,0-1.13477-.40625c-.91016,0-1.37207.5039-1.37207,1.4707v1.06445h2.33887v.60254h-2.3252v6.70948h-.70019V50.2832h-1.34473v-.60254h1.34473v-1.1206A1.86619,1.86619,0,0,1,444.22559,46.543Zm3.123.05615V56.99268h-.70019V46.59912Z" transform="translate(-258.4944 -21)"/><path d="M449.502,53.33691a3.65619,3.65619,0,1,1,3.65625,3.71192A3.562,3.562,0,0,1,449.502,53.33691Zm6.59766,0a2.94506,2.94506,0,1,0-2.94141,3.08155A2.901,2.901,0,0,0,456.09961,53.33691Z" transform="translate(-258.4944 -21)"/><path d="M465.52148,52.72021v4.27247h-.70019V52.77637a2.21445,2.21445,0,0,0-2.36719-2.52149,2.60843,2.60843,0,0,0-2.77344,2.84375v3.89405h-.70117v-7.312h.67285v1.583a3.01827,3.01827,0,0,1,2.89942-1.63916A2.77578,2.77578,0,0,1,465.52148,52.72021Z" transform="translate(-258.4944 -21)"/><path d="M471.999,46.59912h.70118V56.99268H471.999Z" transform="translate(-258.4944 -21)"/><path d="M475.42969,47.34131a.5767.5767,0,0,1,.57422-.57422.56743.56743,0,1,1-.57422.57422Zm.22363,2.33935h.70117v7.312h-.70117Z" transform="translate(-258.4944 -21)"/><path d="M485.84863,52.72021v4.27247h-.70019V52.77637a2.21445,2.21445,0,0,0-2.36719-2.52149,2.60843,2.60843,0,0,0-2.77344,2.84375v3.89405h-.70117v-7.312h.67285v1.583a3.01827,3.01827,0,0,1,2.89942-1.63916A2.77578,2.77578,0,0,1,485.84863,52.72021Z" transform="translate(-258.4944 -21)"/><path d="M494.91992,53.50488h-6.28906a3.12843,3.12843,0,0,0,5.43457,1.89112l.40625.46191a3.5003,3.5003,0,0,1-2.75977,1.19092,3.58937,3.58937,0,0,1-3.76757-3.71192,3.49677,3.49677,0,0,1,3.50195-3.7124,3.46158,3.46158,0,0,1,3.4873,3.68408C494.93359,53.36475,494.91992,53.43457,494.91992,53.50488Zm-6.27539-.54638h5.60352a2.80307,2.80307,0,0,0-5.60352,0Z" transform="translate(-258.4944 -21)"/><path d="M500.56055,49.62451V50.311c-.05567,0-.11133-.01416-.168-.01416-1.625,0-2.59082,1.07861-2.59082,2.88574v3.81006h-.70117v-7.312h.67285v1.59668A2.77684,2.77684,0,0,1,500.56055,49.62451Z" transform="translate(-258.4944 -21)"/><path d="M437.42578,130.53955v9.80518h-.71484v-4.66455h-6.55567v4.66455h-.71386v-9.80518h.71386v4.51025h6.55567v-4.51025Z" transform="translate(-258.4944 -21)"/><path d="M446.79,136.85693H440.501a3.12843,3.12843,0,0,0,5.43457,1.89112l.40625.46191a3.5003,3.5003,0,0,1-2.75977,1.19092,3.58938,3.58938,0,0,1-3.76758-3.71192,3.49677,3.49677,0,0,1,3.502-3.7124,3.46158,3.46158,0,0,1,3.4873,3.68408C446.80371,136.7168,446.79,136.78662,446.79,136.85693Zm-6.27539-.54638h5.60351a2.80307,2.80307,0,0,0-5.60351,0Z" transform="translate(-258.4944 -21)"/><path d="M454.042,135.708v4.63672h-.67187V139.042a2.81043,2.81043,0,0,1-2.63379,1.35889c-1.63867,0-2.63379-.84033-2.63379-2.0874,0-1.10645.70019-2.04493,2.73144-2.04493h2.50782v-.58837a1.90341,1.90341,0,0,0-2.1709-2.08692,3.793,3.793,0,0,0-2.52149.92432l-.35058-.5044a4.4619,4.4619,0,0,1,2.92773-1.03662A2.48668,2.48668,0,0,1,454.042,135.708Zm-.70019,2.47949v-1.37256h-2.49317c-1.51269,0-2.0459.63037-2.0459,1.4707,0,.95264.74317,1.541,2.03125,1.541A2.50584,2.50584,0,0,0,453.3418,138.1875Z" transform="translate(-258.4944 -21)"/><path d="M460.55078,139.88232a2.21646,2.21646,0,0,1-1.498.51856,1.81359,1.81359,0,0,1-1.98925-1.98926v-4.77637h-1.34473v-.60254h1.34473V131.436h.70019v1.59667h2.3252v.60254h-2.3252v4.70655c0,.93847.46192,1.45654,1.3584,1.45654a1.68014,1.68014,0,0,0,1.13477-.40625Z" transform="translate(-258.4944 -21)"/><path d="M465.01367,139.4624l.32227-.56054a4.25241,4.25241,0,0,0,2.63281.88232c1.541,0,2.15723-.5459,2.15723-1.37256,0-2.12891-4.84668-.56006-4.84668-3.43164,0-1.10693.9248-2.00342,2.77441-2.00342a4.4923,4.4923,0,0,1,2.50684.71436l-.32227.56054a3.76727,3.76727,0,0,0-2.19922-.6582c-1.42871,0-2.05859.58838-2.05859,1.37256,0,2.19922,4.84668.64453,4.84668,3.43164,0,1.19092-1.02246,2.00342-2.88574,2.00342A4.58761,4.58761,0,0,1,465.01367,139.4624Z" transform="translate(-258.4944 -21)"/><path d="M472.56055,130.69336a.5767.5767,0,0,1,.57422-.57422.56743.56743,0,1,1-.57422.57422Zm.22363,2.33935h.70117v7.312h-.70117Z" transform="translate(-258.4944 -21)"/><path d="M482.97949,136.07227v4.27246h-.70019v-4.21631a2.21445,2.21445,0,0,0-2.36719-2.52149,2.60843,2.60843,0,0,0-2.77344,2.84375v3.894h-.70117v-7.312h.67285v1.583a3.01827,3.01827,0,0,1,2.89942-1.63916A2.77579,2.77579,0,0,1,482.97949,136.07227Z" transform="translate(-258.4944 -21)"/><path d="M488.46484,136.43652l-1.90429,1.73682v2.17139h-.70117V129.95117h.70117v7.354l4.67773-4.27247h.89649l-3.15137,2.95557,3.46,4.35645h-.86816Z" transform="translate(-258.4944 -21)"/><path d="M437.42578,198.28613v9.80567h-.71484v-4.66407h-6.55567v4.66407h-.71386v-9.80567h.71386v4.51075h6.55567v-4.51075Z" transform="translate(-258.4944 -21)"/><path d="M446.79,204.60352H440.501a3.1284,3.1284,0,0,0,5.43457,1.8916l.40625.46191a3.50149,3.50149,0,0,1-2.75977,1.19043,3.58883,3.58883,0,0,1-3.76758-3.71191,3.49664,3.49664,0,0,1,3.502-3.71192,3.46145,3.46145,0,0,1,3.4873,3.68457C446.80371,204.46387,446.79,204.53418,446.79,204.60352Zm-6.27539-.5459h5.60351a2.80305,2.80305,0,0,0-5.60351,0Z" transform="translate(-258.4944 -21)"/><path d="M454.042,203.45508v4.63672h-.67187v-1.30274a2.80922,2.80922,0,0,1-2.63379,1.3584c-1.63867,0-2.63379-.83984-2.63379-2.08691,0-1.10645.70019-2.04492,2.73144-2.04492h2.50782v-.5879a1.90389,1.90389,0,0,0-2.1709-2.08789,3.79579,3.79579,0,0,0-2.52149.92481l-.35058-.50391a4.45964,4.45964,0,0,1,2.92773-1.03711A2.48668,2.48668,0,0,1,454.042,203.45508Zm-.70019,2.47949v-1.37305h-2.49317c-1.51269,0-2.0459.63086-2.0459,1.47071,0,.95312.74317,1.541,2.03125,1.541A2.50545,2.50545,0,0,0,453.3418,205.93457Z" transform="translate(-258.4944 -21)"/><path d="M460.55078,207.62988a2.21821,2.21821,0,0,1-1.498.51758,1.81309,1.81309,0,0,1-1.98925-1.98828v-4.77734h-1.34473v-.60157h1.34473v-1.59765h.70019v1.59765h2.3252v.60157h-2.3252v4.707c0,.93847.46192,1.457,1.3584,1.457a1.68256,1.68256,0,0,0,1.13477-.40625Z" transform="translate(-258.4944 -21)"/><path d="M473.376,204.43555a3.5439,3.5439,0,0,1-3.61426,3.71191,3.26763,3.26763,0,0,1-2.99707-1.77832v1.72266h-.67285V197.69824h.70117v4.74805a3.27322,3.27322,0,0,1,2.96875-1.72266A3.53614,3.53614,0,0,1,473.376,204.43555Zm-.7002,0a2.95161,2.95161,0,1,0-2.956,3.082A2.911,2.911,0,0,0,472.67578,204.43555Z" transform="translate(-258.4944 -21)"/><path d="M479.002,200.72363v.68653c-.05566,0-.11132-.01368-.168-.01368-1.625,0-2.59082,1.07813-2.59082,2.88477v3.81055H475.542v-7.31153h.67285V202.377A2.77719,2.77719,0,0,1,479.002,200.72363Z" transform="translate(-258.4944 -21)"/><path d="M487.04,204.60352H480.751a3.1284,3.1284,0,0,0,5.43457,1.8916l.40625.46191a3.50149,3.50149,0,0,1-2.75977,1.19043,3.58883,3.58883,0,0,1-3.76758-3.71191,3.49664,3.49664,0,0,1,3.502-3.71192,3.46145,3.46145,0,0,1,3.4873,3.68457C487.05371,204.46387,487.04,204.53418,487.04,204.60352Zm-6.27539-.5459h5.60351a2.80305,2.80305,0,0,0-5.60351,0Z" transform="translate(-258.4944 -21)"/><path d="M494.291,203.45508v4.63672h-.67188v-1.30274a2.80921,2.80921,0,0,1-2.63379,1.3584c-1.63867,0-2.63379-.83984-2.63379-2.08691,0-1.10645.7002-2.04492,2.73145-2.04492h2.50781v-.5879a1.90389,1.90389,0,0,0-2.1709-2.08789,3.79575,3.79575,0,0,0-2.52148.92481l-.35059-.50391a4.45967,4.45967,0,0,1,2.92774-1.03711A2.48668,2.48668,0,0,1,494.291,203.45508Zm-.7002,2.47949v-1.37305h-2.49316c-1.5127,0-2.0459.63086-2.0459,1.47071,0,.95312.74316,1.541,2.03125,1.541A2.50544,2.50544,0,0,0,493.59082,205.93457Z" transform="translate(-258.4944 -21)"/><path d="M499.77734,204.18359l-1.90429,1.73731v2.1709h-.70117V197.69824h.70117v7.35352l4.67773-4.27149h.89649l-3.15137,2.95508,3.46,4.35645h-.86816Z" transform="translate(-258.4944 -21)"/><path d="M437.42578,242.94629V252.752h-.71484v-4.66406h-6.55567V252.752h-.71386v-9.80566h.71386V247.457h6.55567v-4.51074Z" transform="translate(-258.4944 -21)"/><path d="M446.79,249.26367H440.501a3.1284,3.1284,0,0,0,5.43457,1.8916l.40625.46192a3.50149,3.50149,0,0,1-2.75977,1.19043,3.58883,3.58883,0,0,1-3.76758-3.71192,3.49663,3.49663,0,0,1,3.502-3.71191,3.46144,3.46144,0,0,1,3.4873,3.68457C446.80371,249.124,446.79,249.19434,446.79,249.26367Zm-6.27539-.5459h5.60351a2.80305,2.80305,0,0,0-5.60351,0Z" transform="translate(-258.4944 -21)"/><path d="M454.042,248.11523V252.752h-.67187v-1.30273a2.80922,2.80922,0,0,1-2.63379,1.3584c-1.63867,0-2.63379-.83985-2.63379-2.08692,0-1.10644.70019-2.04492,2.73144-2.04492h2.50782v-.58789A1.90389,1.90389,0,0,0,451.1709,246a3.79584,3.79584,0,0,0-2.52149.9248l-.35058-.5039a4.45964,4.45964,0,0,1,2.92773-1.03711A2.48668,2.48668,0,0,1,454.042,248.11523Zm-.70019,2.4795v-1.37305h-2.49317c-1.51269,0-2.0459.63086-2.0459,1.4707,0,.95313.74317,1.541,2.03125,1.541A2.50545,2.50545,0,0,0,453.3418,250.59473Z" transform="translate(-258.4944 -21)"/><path d="M460.55078,252.29a2.21821,2.21821,0,0,1-1.498.51758,1.81309,1.81309,0,0,1-1.98925-1.98828V246.042h-1.34473v-.60156h1.34473v-1.59766h.70019v1.59766h2.3252v.60156h-2.3252v4.707c0,.93848.46192,1.457,1.3584,1.457a1.68251,1.68251,0,0,0,1.13477-.40625Z" transform="translate(-258.4944 -21)"/><path d="M468.40625,249.26367h-6.28906a3.1284,3.1284,0,0,0,5.43457,1.8916l.40625.46192a3.50149,3.50149,0,0,1-2.75977,1.19043,3.58883,3.58883,0,0,1-3.76758-3.71192,3.49663,3.49663,0,0,1,3.502-3.71191,3.46144,3.46144,0,0,1,3.4873,3.68457C468.41992,249.124,468.40625,249.19434,468.40625,249.26367Zm-6.27539-.5459h5.60352a2.80306,2.80306,0,0,0-5.60352,0Z" transform="translate(-258.4944 -21)"/><path d="M474.0459,245.38379v.68652c-.05567,0-.11133-.01367-.168-.01367-1.625,0-2.59082,1.07813-2.59082,2.88477V252.752h-.70117v-7.31152h.67285v1.59668A2.77719,2.77719,0,0,1,474.0459,245.38379Z" transform="translate(-258.4944 -21)"/><path d="M486.98438,249.0957a3.54369,3.54369,0,0,1-3.61329,3.71192,3.26807,3.26807,0,0,1-2.998-1.77832V252.752h-.67285V242.3584h.70117v4.74805a3.27366,3.27366,0,0,1,2.96972-1.72266A3.53591,3.53591,0,0,1,486.98438,249.0957Zm-.7002,0a2.95161,2.95161,0,1,0-2.95605,3.082A2.911,2.911,0,0,0,486.28418,249.0957Z" transform="translate(-258.4944 -21)"/><path d="M489.14941,242.3584h.70118V252.752h-.70118Z" transform="translate(-258.4944 -21)"/><path d="M492.00586,249.0957a3.65618,3.65618,0,1,1,3.65625,3.71192A3.56182,3.56182,0,0,1,492.00586,249.0957Zm6.59766,0a2.94508,2.94508,0,1,0-2.94141,3.082A2.90022,2.90022,0,0,0,498.60352,249.0957Z" transform="translate(-258.4944 -21)"/><path d="M500.68555,249.0957a3.56416,3.56416,0,0,1,3.69824-3.71191,3.20871,3.20871,0,0,1,2.77344,1.34473l-.51856.37793a2.66856,2.66856,0,0,0-2.25488-1.0918,3.08312,3.08312,0,0,0,0,6.16308,2.6694,2.6694,0,0,0,2.25488-1.09277l.51856.37793a3.24187,3.24187,0,0,1-2.77344,1.34473A3.57129,3.57129,0,0,1,500.68555,249.0957Z" transform="translate(-258.4944 -21)"/><path d="M511.7334,248.84375l-1.9043,1.7373v2.1709h-.70117V242.3584h.70117v7.35351l4.67774-4.27148h.89648l-3.15137,2.95508,3.46,4.35644h-.86816Z" transform="translate(-258.4944 -21)"/><path d="M437.42578,280.95313v9.80566h-.58887l-6.68164-8.5166v8.5166h-.71386v-9.80566h.60254l6.667,8.5166v-8.5166Z" transform="translate(-258.4944 -21)"/><path d="M439.81445,287.10254a3.65619,3.65619,0,1,1,3.65625,3.71191A3.56182,3.56182,0,0,1,439.81445,287.10254Zm6.59766,0a2.94508,2.94508,0,1,0-2.94141,3.082A2.90023,2.90023,0,0,0,446.41211,287.10254Z" transform="translate(-258.4944 -21)"/><path d="M454.1123,290.15625v.60254h-5.81347v-.47656l4.81836-6.2334h-4.748v-.60156h5.65918v.47558l-4.833,6.2334Z" transform="translate(-258.4944 -21)"/><path d="M461.1543,290.15625v.60254h-5.81348v-.47656l4.81836-6.2334h-4.748v-.60156h5.65918v.47558l-4.833,6.2334Z" transform="translate(-258.4944 -21)"/><path d="M463.251,280.36523h.70117v10.39356H463.251Z" transform="translate(-258.4944 -21)"/><path d="M473.082,287.27051H466.793a3.1284,3.1284,0,0,0,5.43457,1.8916l.40625.46191a3.50149,3.50149,0,0,1-2.75977,1.19043,3.58882,3.58882,0,0,1-3.76757-3.71191,3.49662,3.49662,0,0,1,3.502-3.71191,3.46144,3.46144,0,0,1,3.4873,3.68457C473.0957,287.13086,473.082,287.20117,473.082,287.27051Zm-6.27539-.5459h5.60352a2.80306,2.80306,0,0,0-5.60352,0Z" transform="translate(-258.4944 -21)"/><rect class="cls-12" x="50.07346" y="270.2852" width="1.58963" height="19.87042" rx="0.79482" ry="0.79482"/><path d="M430.15527,87.43408v4.18848h5.22559v.64453h-5.22559v4.32812h-.71386V86.79h6.55566v.644Z" transform="translate(-258.4944 -21)"/><path d="M437.6875,86.94385a.5767.5767,0,0,1,.57422-.57422.56742.56742,0,1,1-.57422.57422Zm.22363,2.33935h.70117v7.312h-.70117Z" transform="translate(-258.4944 -21)"/><path d="M441.56445,86.20166h.70118V96.59521h-.70118Z" transform="translate(-258.4944 -21)"/><path d="M450.5,91.9585v4.63671h-.67187V95.29248a2.81044,2.81044,0,0,1-2.63379,1.35889c-1.63868,0-2.63379-.84082-2.63379-2.08741,0-1.10644.70019-2.04492,2.73144-2.04492h2.50781v-.58838a1.9034,1.9034,0,0,0-2.17089-2.08691,3.793,3.793,0,0,0-2.52149.92432l-.35058-.5044a4.46189,4.46189,0,0,1,2.92773-1.03662A2.48668,2.48668,0,0,1,450.5,91.9585Zm-.7002,2.47949V93.06543h-2.49316c-1.51269,0-2.0459.63037-2.0459,1.4707,0,.95264.74317,1.541,2.03125,1.541A2.50582,2.50582,0,0,0,449.7998,94.438Z" transform="translate(-258.4944 -21)"/><path d="M465.39844,92.32275v4.27246h-.7002v-4.2163c0-1.65284-.85449-2.52149-2.2832-2.52149a2.57048,2.57048,0,0,0-2.67481,2.84375v3.894h-.70117v-4.2163c0-1.65284-.85449-2.52149-2.2832-2.52149a2.57048,2.57048,0,0,0-2.67481,2.84375v3.894h-.70117v-7.312h.67285v1.56885a2.90305,2.90305,0,0,1,2.80176-1.625,2.58928,2.58928,0,0,1,2.67481,1.76514,3.08638,3.08638,0,0,1,2.95605-1.76514C464.25,89.22705,465.39844,90.27783,465.39844,92.32275Z" transform="translate(-258.4944 -21)"/><path d="M474.46777,93.10742h-6.28906a3.12843,3.12843,0,0,0,5.43457,1.89112l.40625.46191a3.50029,3.50029,0,0,1-2.75976,1.19092,3.58938,3.58938,0,0,1-3.76758-3.71192,3.49677,3.49677,0,0,1,3.502-3.7124,3.46159,3.46159,0,0,1,3.48731,3.68408C474.48145,92.96729,474.46777,93.03711,474.46777,93.10742Zm-6.27539-.54638h5.60352a2.80307,2.80307,0,0,0-5.60352,0Z" transform="translate(-258.4944 -21)"/><path d="M483.19043,92.32275v4.27246h-.7002v-4.2163a2.21444,2.21444,0,0,0-2.36718-2.52149,2.60843,2.60843,0,0,0-2.77344,2.84375v3.894h-.70117v-7.312h.67285v1.583a3.01824,3.01824,0,0,1,2.89941-1.63916A2.77579,2.77579,0,0,1,483.19043,92.32275Z" transform="translate(-258.4944 -21)"/><path d="M489.69727,96.13281a2.214,2.214,0,0,1-1.498.51856A1.8136,1.8136,0,0,1,486.21,94.66211V89.88574h-1.34473V89.2832H486.21V87.68652h.7002V89.2832h2.32519v.60254h-2.32519v4.70655c0,.93847.46191,1.45654,1.35839,1.45654a1.6801,1.6801,0,0,0,1.13477-.40625Z" transform="translate(-258.4944 -21)"/><polyline class="cls-9" points="50.807 80.428 35.506 80 35.506 52 25.506 39 25.506 23.59 32.012 13.151 32.012 7.931 30.566 5.611 50.868 5.611"/><polyline class="cls-9" points="51.506 80 66.506 80 66.506 52 76.506 39 76.506 23.59 69.929 13.151 69.929 7.931 71.391 5.611 50.868 5.611"/><rect class="cls-12" x="48.48383" y="268.69569" width="4.76889" height="7.94817" rx="1" ry="1"/><path class="cls-13" d="M292.5173,45V26.68421h-6.99913V21h46.89419v5.68421h-6.29922V45s5.5993,4.66667,0,12h-3.23859V26.70071l-27.02377-.0165V57h-4.03339S286.918,49.66667,292.5173,45Z" transform="translate(-258.4944 -21)"/><rect class="cls-14" x="37.35639" width="27.02377" height="38"/><rect class="cls-15" x="43.71492" width="13.90929" height="38"/><rect class="cls-12" x="46.89419" width="7.94817" height="7.20085"/><line class="cls-11" x1="60.68447" y1="32.19712" x2="160.42086" y2="32.19712"/><path d="M319.31985,56.017a2.81983,2.81983,0,1,1,2.8198-2.81983A2.82011,2.82011,0,0,1,319.31985,56.017Z" transform="translate(-258.4944 -21)"/><circle class="cls-5" cx="17.0056" cy="217.5" r="12.5"/><circle class="cls-5" cx="73.0056" cy="234.5" r="3.5"/><line class="cls-16" x1="25.5056" y1="39" x2="76.5056" y2="39"/><line class="cls-16" x1="35.5056" y1="52" x2="66.5056" y2="52"/><line class="cls-16" x1="35.5056" y1="80" x2="66.5056" y2="80"/><line class="cls-16" x1="44.5056" y1="106" x2="57.5056" y2="106"/><rect class="cls-12" x="46.89419" width="7.94817" height="271.87483" rx="2.0625" ry="2.0625"/><line class="cls-11" x1="52.51906" y1="70.64231" x2="160.05349" y2="70.64231"/><circle cx="52.66005" cy="70.64231" r="2.81983"/><line class="cls-11" x1="32.68447" y1="226.39505" x2="160.05349" y2="226.39505"/><path d="M291.31985,250.21487a2.81983,2.81983,0,1,1,2.8198-2.81982A2.82011,2.82011,0,0,1,291.31985,250.21487Z" transform="translate(-258.4944 -21)"/></svg>