<?xml version="1.0" encoding="UTF-8" standalone="no"?>
<svg
   xmlns:dc="http://purl.org/dc/elements/1.1/"
   xmlns:cc="http://creativecommons.org/ns#"
   xmlns:rdf="http://www.w3.org/1999/02/22-rdf-syntax-ns#"
   xmlns:svg="http://www.w3.org/2000/svg"
   xmlns="http://www.w3.org/2000/svg"
   xmlns:sodipodi="http://sodipodi.sourceforge.net/DTD/sodipodi-0.dtd"
   xmlns:inkscape="http://www.inkscape.org/namespaces/inkscape"
   sodipodi:docname="001.svg"
   inkscape:version="1.0 (4035a4fb49, 2020-05-01)"
   id="svg5101"
   version="1.1"
   viewBox="0 0 68.055473 76.770332"
   height="76.770332mm"
   width="68.055473mm">
  <defs
     id="defs5095">
    <style
       id="style5664">.cls-1{fill:#d3d3d3;}.cls-2{fill:#898989;}.cls-11,.cls-16,.cls-3,.cls-8{fill:none;}.cls-10,.cls-3{stroke:#696969;stroke-width:0.1px;}.cls-10,.cls-11,.cls-16,.cls-3,.cls-8{stroke-miterlimit:10;}.cls-4{fill:#9b9b9b;}.cls-5{fill:#666;}.cls-6{fill:#545454;}.cls-7{fill:#606060;}.cls-8{stroke:#898989;stroke-width:0.25px;}.cls-9{fill:#a5a5a5;}.cls-10{fill:#fff;}.cls-11{stroke:#000;stroke-width:0.5px;}.cls-12{fill:#0096ff;}.cls-13{fill:#7a7a7a;}.cls-14{fill:#eaeaea;}.cls-15{fill:#f5f5f5;}.cls-16{stroke:#7a7a7a;stroke-width:0.15px;}</style>
  </defs>
  <sodipodi:namedview
     inkscape:window-maximized="1"
     inkscape:window-y="-8"
     inkscape:window-x="-8"
     inkscape:window-height="837"
     inkscape:window-width="1600"
     fit-margin-bottom="0"
     fit-margin-right="0"
     fit-margin-left="0"
     fit-margin-top="0"
     showgrid="false"
     inkscape:document-rotation="0"
     inkscape:current-layer="layer1"
     inkscape:document-units="mm"
     inkscape:cy="92.800382"
     inkscape:cx="162.89449"
     inkscape:zoom="2.16"
     inkscape:pageshadow="2"
     inkscape:pageopacity="0.0"
     borderopacity="1.0"
     bordercolor="#666666"
     pagecolor="#ffffff"
     id="base" />
  <metadata
     id="metadata5098">
    <rdf:RDF>
      <cc:Work
         rdf:about="">
        <dc:format>image/svg+xml</dc:format>
        <dc:type
           rdf:resource="http://purl.org/dc/dcmitype/StillImage" />
        <dc:title></dc:title>
      </cc:Work>
    </rdf:RDF>
  </metadata>
  <g
     transform="translate(-62.734167,-109.7815)"
     id="layer1"
     inkscape:groupmode="layer"
     inkscape:label="Calque 1">
    <polygon
       transform="matrix(0.26458333,0,0,0.26458333,83.622325,113.16339)"
       id="polygon5670"
       points="101.339,117.725 72.328,117.725 72.328,111.719 101.339,111.719 101.339,106.95 72.328,106.95 72.328,99.797 101.339,99.797 101.339,95.028 72.328,95.022 72.328,88.67 72.922,88.67 101.339,88.67 101.339,83.901 72.375,83.812 72.328,77.145 101.737,77.145 101.737,72.376 81.071,72.376 81.071,40.583 81.071,13.559 104.121,13.559 104.121,5.611 74.713,5.611 27.024,5.611 0,5.611 0,13.559 20.665,13.559 20.665,40.583 20.665,72.376 0,72.376 0,77.145 29.408,77.145 29.361,83.812 0.397,83.901 0.397,88.67 28.815,88.67 29.408,88.67 29.408,95.022 0.397,95.028 0.397,99.797 29.408,99.797 29.408,106.95 0.397,106.95 0.397,111.719 29.408,111.719 29.408,117.725 0.397,117.725 0.397,122.847 29.408,122.847 29.408,129.21 0.397,129.21 0.397,133.974 29.408,133.974 29.408,140.822 0.397,140.822 0.397,145.896 29.408,145.896 29.408,152.352 0.397,152.352 0.397,157.024 29.408,157.024 29.408,163.676 0.397,163.676 0.397,168.946 29.408,168.946 29.408,175.011 0.397,175.011 0.397,180.073 29.408,180.073 29.408,185.24 0,185.24 0,190.009 42.125,190.009 60.406,190.009 101.737,190.009 101.737,185.24 72.328,185.24 72.328,180.073 101.339,180.073 101.339,175.011 72.328,175.011 72.328,168.946 101.339,168.946 101.339,163.676 72.328,163.676 72.328,157.024 101.339,157.024 101.339,152.352 72.328,152.352 72.328,145.896 101.339,145.896 101.339,140.822 72.328,140.822 72.328,133.974 101.339,133.974 101.339,129.21 72.328,129.21 72.328,122.847 101.339,122.847 "
       class="cls-1" />
    <path
       style="stroke-width:0.264583"
       id="path5672"
       d="M 101.91801,179.83956"
       class="cls-1" />
    <polygon
       transform="matrix(0.26458333,0,0,0.26458333,83.622325,113.16339)"
       id="polygon5674"
       points="80.375,200.341 2.97,200.341 0.13,202.735 0.13,231.458 0.13,238.639 0.13,250.606 2.97,253 79.665,253 82.506,249.809 82.506,202.735 "
       class="cls-2" />
    <path
       id="path5676"
       d="M 94.767975,141.56582"
       class="cls-3" />
    <polyline
       transform="matrix(0.26458333,0,0,0.26458333,83.622325,113.16339)"
       id="polyline5678"
       points="50.868 224.186 38.151 224.186 38.151 200.341 42.125 200.341 42.125 190.009 38.151 190.009 38.506 110 43.715 106.553 58.022 106.553 63.506 110 63.585 190.009 59.611 190.009 59.611 200.341 63.585 200.341 63.585 224.186 50.868 224.186"
       class="cls-4" />
    <polygon
       transform="matrix(0.26458333,0,0,0.26458333,83.622325,113.16339)"
       id="polygon5680"
       points="39.741,252.799 39.741,255.184 34.177,255.184 34.177,271.08 42.92,270.957 48.484,279.823 53.253,279.823 58.816,270.957 67.559,271.08 67.559,255.184 61.996,255.184 61.996,252.799 63.585,252.799 63.585,224.186 38.151,224.186 38.151,252.799 "
       class="cls-5" />
    <polyline
       transform="matrix(0.26458333,0,0,0.26458333,83.622325,113.16339)"
       id="polyline5682"
       points="51.663 279.823 51.663 276.644 53.253 276.644 53.253 272.67 55.637 271.08 55.637 224.186 46.099 224.186 46.099 271.08 48.484 272.67 48.484 276.644 50.073 276.644 50.073 279.823 51.663 279.823"
       class="cls-6" />
    <polygon
       transform="matrix(0.26458333,0,0,0.26458333,83.622325,113.16339)"
       id="polygon5686"
       points="7.598,251.495 26.506,251.997 26.506,251.495 7.598,251.056 "
       class="cls-8" />
    <polygon
       transform="matrix(0.26458333,0,0,0.26458333,83.622325,113.16339)"
       id="polygon5688"
       points="7.598,250.492 26.506,250.993 26.506,250.492 7.598,250.053 "
       class="cls-8" />
    <polygon
       transform="matrix(0.26458333,0,0,0.26458333,83.622325,113.16339)"
       id="polygon5690"
       points="7.598,249.488 26.506,249.99 26.506,249.488 7.598,249.049 "
       class="cls-8" />
    <polygon
       transform="matrix(0.26458333,0,0,0.26458333,83.622325,113.16339)"
       id="polygon5692"
       points="7.598,248.485 26.506,248.987 26.506,248.485 7.598,248.046 "
       class="cls-8" />
    <polygon
       transform="matrix(0.26458333,0,0,0.26458333,83.622325,113.16339)"
       id="polygon5694"
       points="7.598,247.482 26.506,247.983 26.506,247.482 7.598,247.043 "
       class="cls-8" />
    <polygon
       transform="matrix(0.26458333,0,0,0.26458333,83.622325,113.16339)"
       id="polygon5696"
       points="7.598,246.479 26.506,246.98 26.506,246.479 7.598,246.04 "
       class="cls-8" />
    <polygon
       transform="matrix(0.26458333,0,0,0.26458333,83.622325,113.16339)"
       id="polygon5698"
       points="7.598,245.475 26.506,245.977 26.506,245.475 7.598,245.036 "
       class="cls-8" />
    <polygon
       transform="matrix(0.26458333,0,0,0.26458333,83.622325,113.16339)"
       id="polygon5700"
       points="7.598,244.472 26.506,244.974 26.506,244.472 7.598,244.033 "
       class="cls-8" />
    <polygon
       transform="matrix(0.26458333,0,0,0.26458333,83.622325,113.16339)"
       id="polygon5702"
       points="7.598,243.469 26.506,243.97 26.506,243.469 7.598,243.03 "
       class="cls-8" />
    <polygon
       transform="matrix(0.26458333,0,0,0.26458333,83.622325,113.16339)"
       id="polygon5704"
       points="7.598,242.465 26.506,242.967 26.506,242.465 7.598,242.026 "
       class="cls-8" />
    <polygon
       transform="matrix(0.26458333,0,0,0.26458333,83.622325,113.16339)"
       id="polygon5706"
       points="7.598,241.462 26.506,241.964 26.506,241.462 7.598,241.023 "
       class="cls-8" />
    <polygon
       transform="matrix(0.26458333,0,0,0.26458333,83.622325,113.16339)"
       id="polygon5708"
       points="7.598,240.459 26.506,240.96 26.506,240.459 7.598,240.02 "
       class="cls-8" />
    <polygon
       transform="matrix(0.26458333,0,0,0.26458333,83.622325,113.16339)"
       id="polygon5710"
       points="7.598,239.455 26.506,239.957 26.506,239.455 7.598,239.016 "
       class="cls-8" />
    <polygon
       transform="matrix(0.26458333,0,0,0.26458333,83.622325,113.16339)"
       id="polygon5712"
       points="7.598,238.452 26.506,238.954 26.506,238.452 7.598,238.013 "
       class="cls-8" />
    <polygon
       transform="matrix(0.26458333,0,0,0.26458333,83.622325,113.16339)"
       id="polygon5714"
       points="7.598,237.449 26.506,237.95 26.506,237.449 7.598,237.01 "
       class="cls-8" />
    <polygon
       transform="matrix(0.26458333,0,0,0.26458333,83.622325,113.16339)"
       id="polygon5716"
       points="7.598,236.446 26.506,236.947 26.506,236.446 7.598,236.007 "
       class="cls-8" />
    <polygon
       transform="matrix(0.26458333,0,0,0.26458333,83.622325,113.16339)"
       id="polygon5718"
       points="7.598,235.442 26.506,235.944 26.506,235.442 7.598,235.003 "
       class="cls-8" />
    <polygon
       transform="matrix(0.26458333,0,0,0.26458333,83.622325,113.16339)"
       id="polygon5720"
       points="7.598,234.439 26.506,234.941 26.506,234.439 7.598,234 "
       class="cls-8" />
    <polygon
       transform="matrix(0.26458333,0,0,0.26458333,83.622325,113.16339)"
       id="polygon5722"
       points="7.598,252.498 26.506,253 26.506,252.498 7.598,252.059 "
       class="cls-8" />
    <polyline
       transform="matrix(0.26458333,0,0,0.26458333,83.622325,113.16339)"
       id="polyline5724"
       points="50.868 224.186 42.585 224.186 42.585 223.546 44.091 222.907 44.091 84.16 35.506 80 50.868 80.324"
       class="cls-9" />
    <polyline
       transform="matrix(0.26458333,0,0,0.26458333,83.622325,113.16339)"
       id="polyline5726"
       points="50.868 224.186 59.151 224.186 59.151 223.546 57.645 222.907 57.645 84.16 66.506 80 50.506 80"
       class="cls-9" />
    <path
       id="path5728"
       d="M 95.306854,141.35991"
       class="cls-10" />
    <rect
       style="stroke-width:0.264583"
       id="rect5830"
       ry="0.21029612"
       rx="0.21029612"
       height="5.2573819"
       width="0.4205896"
       y="184.67635"
       x="96.870934"
       class="cls-12" />
    <polyline
       transform="matrix(0.26458333,0,0,0.26458333,83.622325,113.16339)"
       id="polyline5848"
       points="50.807 80.428 35.506 80 35.506 52 25.506 39 25.506 23.59 32.012 13.151 32.012 7.931 30.566 5.611 50.868 5.611"
       class="cls-9" />
    <polyline
       transform="matrix(0.26458333,0,0,0.26458333,83.622325,113.16339)"
       id="polyline5850"
       points="51.506 80 66.506 80 66.506 52 76.506 39 76.506 23.59 69.929 13.151 69.929 7.931 71.391 5.611 50.868 5.611"
       class="cls-9" />
    <rect
       style="stroke-width:0.264583"
       id="rect5852"
       ry="0.26458332"
       rx="0.26458332"
       height="2.1029534"
       width="1.2617688"
       y="184.2558"
       x="96.45034"
       class="cls-12" />
    <path
       style="stroke-width:0.264583"
       id="path5854"
       d="m 92.624217,119.51339 v -4.84605 h -1.851853 v -1.50395 h 12.407416 v 1.50395 h -1.66666 v 4.84605 c 0,0 1.48148,1.23472 0,3.175 h -0.85688 v -8.01669 l -7.15004,-0.004 v 8.02105 h -1.067167 c 0,0 -1.296297,-1.94028 0.185184,-3.175 z"
       class="cls-13" />
    <rect
       style="stroke-width:0.264583"
       id="rect5856"
       height="10.054167"
       width="7.1500387"
       x="93.506203"
       class="cls-14"
       y="113.16339" />
    <rect
       style="stroke-width:0.264583"
       id="rect5858"
       height="10.054167"
       width="3.6801662"
       x="95.188568"
       class="cls-15"
       y="113.16339" />
    <rect
       style="stroke-width:0.264583"
       id="rect5860"
       height="1.9052249"
       width="2.1029534"
       x="96.029747"
       class="cls-12"
       y="113.16339" />
    <circle
       style="stroke-width:0.264583"
       id="circle5866"
       r="3.3072915"
       cy="170.71027"
       cx="88.121727"
       class="cls-5" />
    <circle
       style="stroke-width:0.264583"
       id="circle5868"
       r="0.92604166"
       cy="175.20819"
       cx="102.93839"
       class="cls-5" />
    <line
       id="line5870"
       y2="123.48214"
       x2="103.86443"
       y1="123.48214"
       x1="90.370682"
       class="cls-16" />
    <line
       id="line5872"
       y2="126.92172"
       x2="101.2186"
       y1="126.92172"
       x1="93.016518"
       class="cls-16" />
    <line
       id="line5874"
       y2="134.33006"
       x2="101.2186"
       y1="134.33006"
       x1="93.016518"
       class="cls-16" />
    <line
       id="line5876"
       y2="141.20923"
       x2="98.837349"
       y1="141.20923"
       x1="95.397766"
       class="cls-16" />
    <rect
       style="stroke-width:0.264583"
       id="rect5878"
       ry="0.54570311"
       rx="0.54570311"
       height="71.933548"
       width="2.1029534"
       x="96.029747"
       class="cls-12"
       y="113.16339" />
  </g>
</svg>
