<?xml version="1.0" encoding="UTF-8" standalone="no"?>
<svg
   xmlns:dc="http://purl.org/dc/elements/1.1/"
   xmlns:cc="http://creativecommons.org/ns#"
   xmlns:rdf="http://www.w3.org/1999/02/22-rdf-syntax-ns#"
   xmlns:svg="http://www.w3.org/2000/svg"
   xmlns="http://www.w3.org/2000/svg"
   xmlns:sodipodi="http://sodipodi.sourceforge.net/DTD/sodipodi-0.dtd"
   xmlns:inkscape="http://www.inkscape.org/namespaces/inkscape"
   inkscape:version="1.0 (4035a4fb49, 2020-05-01)"
   sodipodi:docname="BCN3D-Technologies-Thermal-Analysis-hotend_e3d_3d_printer-Sigma-Sigmax-R19.svg"
   version="1.1"
   viewBox="0 0 745 325"
   data-name="Capa 1"
   id="Capa_1">
  <metadata
     id="metadata508">
    <rdf:RDF>
      <cc:Work
         rdf:about="">
        <dc:format>image/svg+xml</dc:format>
        <dc:type
           rdf:resource="http://purl.org/dc/dcmitype/StillImage" />
      </cc:Work>
    </rdf:RDF>
  </metadata>
  <sodipodi:namedview
     inkscape:current-layer="Capa_1"
     inkscape:window-maximized="1"
     inkscape:window-y="-8"
     inkscape:window-x="-8"
     inkscape:cy="162.5"
     inkscape:cx="335.80648"
     inkscape:zoom="1.6483221"
     showgrid="false"
     id="namedview506"
     inkscape:window-height="837"
     inkscape:window-width="1600"
     inkscape:pageshadow="2"
     inkscape:pageopacity="0"
     guidetolerance="10"
     gridtolerance="10"
     objecttolerance="10"
     borderopacity="1"
     bordercolor="#666666"
     pagecolor="#ffffff" />
  <defs
     id="defs135">
    <style
       id="style2">.cls-1{fill:url(#Degradado_sin_nombre_44);}.cls-2{fill:red;}.cls-3{fill:url(#Degradado_sin_nombre_39);}.cls-4,.cls-5,.cls-7{fill:none;stroke-miterlimit:10;}.cls-4,.cls-5{stroke:#fff;}.cls-4{stroke-width:0.75px;}.cls-5{stroke-width:0.25px;}.cls-6{fill:#1b1464;}.cls-7{stroke:#000;stroke-width:0.1px;}.cls-8{fill:url(#Degradado_sin_nombre_147);}</style>
    <linearGradient
       gradientUnits="userSpaceOnUse"
       y2="277.76323"
       x2="167.77464"
       y1="21.01916"
       x1="167.77464"
       id="Degradado_sin_nombre_44">
      <stop
         id="stop4"
         stop-color="#1b1464"
         offset="0" />
      <stop
         id="stop6"
         stop-color="#1a1368"
         offset="0.05136" />
      <stop
         id="stop8"
         stop-color="#181275"
         offset="0.10471" />
      <stop
         id="stop10"
         stop-color="#140f89"
         offset="0.159" />
      <stop
         id="stop12"
         stop-color="#0f0ba7"
         offset="0.21395" />
      <stop
         id="stop14"
         stop-color="#0907cc"
         offset="0.26938" />
      <stop
         id="stop16"
         stop-color="#0101f9"
         offset="0.3245" />
      <stop
         id="stop18"
         stop-color="blue"
         offset="0.33077" />
      <stop
         id="stop20"
         stop-color="#0712fe"
         offset="0.37374" />
      <stop
         id="stop22"
         stop-color="#1840fb"
         offset="0.45964" />
      <stop
         id="stop24"
         stop-color="#3389f7"
         offset="0.5794" />
      <stop
         id="stop26"
         stop-color="#3fa9f5"
         offset="0.62821" />
      <stop
         id="stop28"
         stop-color="#41aaf3"
         offset="0.65984" />
      <stop
         id="stop30"
         stop-color="#47acec"
         offset="0.67123" />
      <stop
         id="stop32"
         stop-color="#51b0e1"
         offset="0.67936" />
      <stop
         id="stop34"
         stop-color="#60b5d0"
         offset="0.68593" />
      <stop
         id="stop36"
         stop-color="#74bcba"
         offset="0.69155" />
      <stop
         id="stop38"
         stop-color="#8cc59e"
         offset="0.69653" />
      <stop
         id="stop40"
         stop-color="#a9d07e"
         offset="0.70104" />
      <stop
         id="stop42"
         stop-color="#cbdc58"
         offset="0.70518" />
      <stop
         id="stop44"
         stop-color="#efe92f"
         offset="0.70887" />
      <stop
         id="stop46"
         stop-color="#fcee21"
         offset="0.71" />
      <stop
         id="stop48"
         stop-color="#fdc61b"
         offset="0.71235" />
      <stop
         id="stop50"
         stop-color="#fd9d16"
         offset="0.71518" />
      <stop
         id="stop52"
         stop-color="#fd7711"
         offset="0.71836" />
      <stop
         id="stop54"
         stop-color="#fe570c"
         offset="0.72183" />
      <stop
         id="stop56"
         stop-color="#fe3b08"
         offset="0.72566" />
      <stop
         id="stop58"
         stop-color="#ff2505"
         offset="0.72999" />
      <stop
         id="stop60"
         stop-color="#ff1403"
         offset="0.73504" />
      <stop
         id="stop62"
         stop-color="#ff0901"
         offset="0.74128" />
      <stop
         id="stop64"
         stop-color="#ff0200"
         offset="0.75004" />
      <stop
         id="stop66"
         stop-color="red"
         offset="0.77436" />
    </linearGradient>
    <linearGradient
       gradientUnits="userSpaceOnUse"
       y2="259.04141"
       x2="403.84934"
       y1="14.5"
       x1="403.84934"
       id="Degradado_sin_nombre_39">
      <stop
         id="stop69"
         stop-color="#1b1464"
         offset="0" />
      <stop
         id="stop71"
         stop-color="#1a1368"
         offset="0.05136" />
      <stop
         id="stop73"
         stop-color="#181275"
         offset="0.10471" />
      <stop
         id="stop75"
         stop-color="#140f89"
         offset="0.159" />
      <stop
         id="stop77"
         stop-color="#0f0ba7"
         offset="0.21395" />
      <stop
         id="stop79"
         stop-color="#0907cc"
         offset="0.26938" />
      <stop
         id="stop81"
         stop-color="#0101f9"
         offset="0.3245" />
      <stop
         id="stop83"
         stop-color="blue"
         offset="0.33077" />
      <stop
         id="stop85"
         stop-color="#0712fe"
         offset="0.37078" />
      <stop
         id="stop87"
         stop-color="#1840fb"
         offset="0.45075" />
      <stop
         id="stop89"
         stop-color="#3389f7"
         offset="0.56225" />
      <stop
         id="stop91"
         stop-color="#3fa9f5"
         offset="0.60769" />
      <stop
         id="stop93"
         stop-color="#99ca90"
         offset="0.65135" />
      <stop
         id="stop95"
         stop-color="#e0e440"
         offset="0.68829" />
      <stop
         id="stop97"
         stop-color="#fcee21"
         offset="0.70513" />
      <stop
         id="stop99"
         stop-color="#f58c23"
         offset="0.74476" />
      <stop
         id="stop101"
         stop-color="#f15a24"
         offset="0.76667" />
      <stop
         id="stop103"
         stop-color="#f25522"
         offset="0.77387" />
      <stop
         id="stop105"
         stop-color="#f4461c"
         offset="0.78261" />
      <stop
         id="stop107"
         stop-color="#f82e12"
         offset="0.79213" />
      <stop
         id="stop109"
         stop-color="#fd0c05"
         offset="0.80216" />
      <stop
         id="stop111"
         stop-color="red"
         offset="0.80513" />
    </linearGradient>
    <linearGradient
       gradientUnits="userSpaceOnUse"
       gradientTransform="translate(222.09146 -14.05258)"
       y2="297.20685"
       x2="399.95427"
       y1="42.84574"
       x1="399.95427"
       id="Degradado_sin_nombre_147">
      <stop
         id="stop114"
         stop-color="blue"
         offset="0" />
      <stop
         id="stop116"
         stop-color="#0071bc"
         offset="0.13077" />
      <stop
         id="stop118"
         stop-color="#3fa9f5"
         offset="0.2641" />
      <stop
         id="stop120"
         stop-color="aqua"
         offset="0.38718" />
      <stop
         id="stop122"
         stop-color="#d9e021"
         offset="0.50513" />
      <stop
         id="stop124"
         stop-color="#fcee21"
         offset="0.59744" />
      <stop
         id="stop126"
         stop-color="#fbb03b"
         offset="0.69487" />
      <stop
         id="stop128"
         stop-color="#f7931e"
         offset="0.79231" />
      <stop
         id="stop130"
         stop-color="#f15a24"
         offset="0.88974" />
      <stop
         id="stop132"
         stop-color="red"
         offset="1" />
    </linearGradient>
  </defs>
  <title
     id="title137">Thermal Analysis E3D</title>
  <polygon
     id="polygon139"
     points="177.29 257.097 182.342 257.097 182.342 271.531 174.404 271.419 169.352 279.469 165.022 279.469 159.971 271.419 152.032 271.531 152.032 257.097 157.084 257.097 157.084 254.9 122.581 254.9 120.011 252.735 120.011 241.907 120.011 235.41 120.011 209.423 122.581 207.258 159 207 159 197.921 121.001 197.921 121.001 193.591 147.702 193.591 147.702 188.9 121.362 188.9 121.362 184.303 147.702 184.303 147.702 178.797 121.362 178.797 121.362 174.012 147.702 174.012 147.702 167.972 121.362 167.972 121.362 163.73 147.702 163.73 147.702 157.869 121.362 157.869 121.362 153.261 147.702 153.261 147.702 147.044 121.362 147.044 121.362 142.718 147.702 142.718 147.702 136.94 121.362 136.94 121.362 132.29 147.702 132.29 147.702 126.837 121.362 126.837 121.362 122.507 147.702 122.507 147.702 116.012 121.362 116.012 121.362 111.682 147.702 111.676 147.702 105.909 147.164 105.909 121.362 105.909 121.362 101.579 147.66 101.498 147.702 95.445 121.001 95.445 121.001 91.115 139.764 91.115 139.764 62.248 139.764 37.712 121.001 37.712 121.001 30.495 145.537 30.495 188.837 30.495 215.539 30.495 215.539 37.712 194.61 37.712 194.61 62.248 194.61 91.115 213.374 91.115 213.374 95.445 186.672 95.445 186.715 101.498 213.013 101.579 213.013 105.909 187.211 105.909 186.672 105.909 186.672 111.676 213.013 111.682 213.013 116.012 186.672 116.012 186.672 122.507 213.013 122.507 213.013 126.837 186.672 126.837 186.672 132.29 213.013 132.29 213.013 136.94 186.672 136.94 186.672 142.718 213.013 142.718 213.013 147.044 186.672 147.044 186.672 153.261 213.013 153.261 213.013 157.869 186.672 157.869 186.672 163.73 213.013 163.73 213.013 167.972 186.672 167.972 186.672 174.012 213.013 174.012 213.013 178.797 186.672 178.797 186.672 184.303 213.013 184.303 213.013 188.9 186.672 188.9 186.672 193.591 213.374 193.591 213.374 197.921 176 197.921 176 207.258 192.612 207.258 194.54 209.423 194.54 252.013 191.97 254.9 177.29 254.9 177.29 257.097"
     class="cls-1" />
  <polyline
     id="polyline141"
     points="176 207.258 192.687 207.258 194.614 209.423 194.614 252.013 192.044 254.9 177.365 254.9 177.365 257.097 182.417 257.097 182.417 271.531 174.479 271.419 169.427 279.469 165.097 279.469 160.045 271.419 152.107 271.531 152.107 257.097 157.159 257.097 157.159 254.9 122.655 254.9 120.085 252.735 120.085 241.907 120.085 235.41 120.085 209.423 122.655 207.258 159 207.258"
     class="cls-2" />
  <polygon
     id="polygon143"
     points="413.365 257.097 418.417 257.097 418.417 271.531 410.479 271.419 405.427 279.469 401.097 279.469 396.045 271.419 388.107 271.531 388.107 257.097 393.159 257.097 393.159 254.9 358.655 254.9 356.085 252.735 356.085 241.907 356.085 235.41 356.085 209.423 358.655 207.258 395 207.258 395 198 395 189 357.436 188.9 357.436 184.303 383.777 184.303 383.777 178.797 357.436 178.797 357.436 174.012 383.777 174.012 383.777 167.972 357.436 167.972 357.436 163.73 383.777 163.73 383.777 157.869 357.436 157.869 357.436 153.261 383.777 153.261 383.777 147.044 357.436 147.044 357.436 142.718 383.777 142.718 383.777 136.94 357.436 136.94 357.436 132.29 383.777 132.29 383.777 126.837 357.436 126.837 357.436 122.507 383.777 122.507 383.777 116.012 357.436 116.012 357.436 111.682 376 111.676 375.839 62.248 375.839 37.712 357.075 37.712 357.075 30.495 381.612 30.495 424.912 30.495 451.613 30.495 451.613 37.712 430.685 37.712 430.685 62.248 430 111.676 449.088 111.682 449.088 116.012 422.747 116.012 422.747 122.507 449.088 122.507 449.088 126.837 422.747 126.837 422.747 132.29 449.088 132.29 449.088 136.94 422.747 136.94 422.747 142.718 449.088 142.718 449.088 147.044 422.747 147.044 422.747 153.261 449.088 153.261 449.088 157.869 422.747 157.869 422.747 163.73 449.088 163.73 449.088 167.972 422.747 167.972 422.747 174.012 449.088 174.012 449.088 178.797 422.747 178.797 422.747 184.303 449.088 184.303 449.088 188.9 412 188.9 412 197.921 412 207.258 428.687 207.258 430.614 209.423 430.614 252.013 428.044 254.9 413.365 254.9 413.365 257.097"
     class="cls-3" />
  <polyline
     id="polyline145"
     points="412 207.258 428.687 207.258 430.614 209.423 430.614 252.013 428.044 254.9 413.365 254.9 413.365 257.097 418.417 257.097 418.417 271.531 410.479 271.419 405.427 279.469 401.097 279.469 396.045 271.419 388.107 271.531 388.107 257.097 393.159 257.097 393.159 254.9 358.655 254.9 356.085 252.735 356.085 241.907 356.085 235.41 356.085 209.423 358.655 207.258 395 207.258"
     class="cls-2" />
  <circle
     id="circle187"
     r="11.30928"
     cy="222.78175"
     cx="135.27908"
     class="cls-4" />
  <circle
     id="circle189"
     r="3.1666"
     cy="238.16237"
     cx="185.94464"
     class="cls-4" />
  <polyline
     id="polyline191"
     points="167.187 228.952 155.641 228.952 155.641 207.302 155.641 197.921 155.5 132.5 160.692 127.5 173.682 127.537 178.5 132.5 178.734 197.921 178.734 207.302 178.734 228.952 167.187 228.952"
     class="cls-4" />
  <polygon
     id="polygon193"
     points="169.352 279.469 174.404 271.419 182.342 271.531 182.342 257.097 177.29 257.097 177.29 254.932 178.734 254.932 178.734 228.952 155.641 228.952 155.641 254.932 157.084 254.932 157.084 257.097 152.032 257.097 152.032 271.531 159.971 271.419 165.022 279.469 169.352 279.469"
     class="cls-4" />
  <polyline
     id="polyline195"
     points="167.909 279.469 167.909 276.582 169.352 276.582 169.352 272.974 171.517 271.531 171.517 228.952 162.857 228.952 162.857 271.531 165.022 272.974 165.022 276.582 166.466 276.582 166.466 279.469 167.909 279.469"
     class="cls-4" />
  <polyline
     id="polyline197"
     points="167.335 228.952 159.487 228.952 159.487 228.37 160.914 227.788 160.914 101.4 153.597 97.786"
     class="cls-4" />
  <polyline
     id="polyline199"
     points="167.335 228.952 175.184 228.952 175.184 228.37 173.757 227.788 173.757 101.4 180.892 97.905"
     class="cls-4" />
  <polyline
     id="polyline201"
     points="143.5 28.5 148.5 32.5 148.5 37.5 144.215 46.666 144.215 60.75 153.381 72.748 153.381 97.786 180.757 98.022 180.757 72.896 189.767 60.856 189.767 46.722 185.5 37.5 185.5 32.5 189 29"
     class="cls-4" />
  <path
     id="path203"
     d="M84.26074,309.36328c0,1.667-1.23291,2.61914-3.68408,2.61914H76.06592v-9.80566h4.23047c2.18506,0,3.4458.9248,3.4458,2.52148a2.27654,2.27654,0,0,1-1.49854,2.22754A2.34118,2.34118,0,0,1,84.26074,309.36328Zm-7.1582-6.332v3.55859h3.124c1.56885,0,2.479-.60254,2.479-1.77929s-.91016-1.7793-2.479-1.7793Zm6.12158,6.248c0-1.27539-.93848-1.835-2.66162-1.835h-3.46v3.68359h3.46C82.28564,311.12793,83.22412,310.56738,83.22412,309.2793Z" />
  <path
     id="path205"
     d="M85.75391,307.08008a4.923,4.923,0,0,1,5.14062-4.98731,4.74935,4.74935,0,0,1,3.58594,1.42871l-.6582.65918a3.88678,3.88678,0,0,0-2.89991-1.16308,4.06286,4.06286,0,1,0,0,8.124,3.84718,3.84718,0,0,0,2.89991-1.17578l.6582.6582a4.76947,4.76947,0,0,1-3.6001,1.44239A4.919,4.919,0,0,1,85.75391,307.08008Z" />
  <path
     id="path207"
     d="M104.88281,302.17676v9.80566h-.85449l-6.30371-7.95605v7.95605H96.688v-9.80566h.85449l6.31738,7.957v-7.957Z" />
  <path
     id="path209"
     d="M113.687,309.167c0,1.63867-1.19043,2.89942-3.5581,2.89942a5.09862,5.09862,0,0,1-3.52979-1.26075l.49024-.79785a4.2965,4.2965,0,0,0,3.03955,1.13379c1.625,0,2.52148-.75586,2.52148-1.97461,0-1.17676-.82617-1.94726-2.64746-1.94726h-.7002v-.74219l2.71729-3.4043h-5.01465v-.89648h6.30322v.71484l-2.77343,3.48828C112.63672,306.49121,113.687,307.59766,113.687,309.167Z" />
  <path
     id="path211"
     d="M115.96582,302.17676H119.958c3.13769,0,5.25293,2.01758,5.25293,4.90332s-2.11524,4.90234-5.25293,4.90234h-3.99219Zm3.93652,8.90918c2.605,0,4.28614-1.65332,4.28614-4.00586,0-2.35352-1.68116-4.00684-4.28614-4.00684h-2.8999v8.0127Z" />
  <path
     id="path213"
     d="M137.76709,307.71v4.27246h-.99463v-4.17383a2.05725,2.05725,0,0,0-2.21338-2.35351,2.41549,2.41549,0,0,0-2.57715,2.66113v3.86621h-.99463V301.58887h.99463v4.31445a3.11353,3.11353,0,0,1,2.75928-1.34473A2.82032,2.82032,0,0,1,137.76709,307.71Z" />
  <path
     id="path215"
     d="M139.751,308.29883a3.74683,3.74683,0,1,1,3.7539,3.7539A3.62393,3.62393,0,0,1,139.751,308.29883Zm6.48535,0a2.74159,2.74159,0,1,0-2.73145,2.87109A2.68694,2.68694,0,0,0,146.23633,308.29883Z" />
  <path
     id="path217"
     d="M153.15137,311.53418a2.36816,2.36816,0,0,1-1.55518.51855,1.95215,1.95215,0,0,1-2.15723-2.14355v-4.4541h-1.3164v-.84082h1.3164v-1.61035h.99463v1.61035h2.24121v.84082h-2.24121v4.39844a1.18013,1.18013,0,0,0,1.27491,1.34472,1.64066,1.64066,0,0,0,1.09228-.3789Z" />
  <path
     id="path219"
     d="M161.10449,308.60645h-6.16357a2.72771,2.72771,0,0,0,2.8999,2.56347,2.90285,2.90285,0,0,0,2.25488-.96679l.56055.64453a3.895,3.895,0,0,1-6.70947-2.54883,3.5485,3.5485,0,0,1,3.59961-3.74024,3.51106,3.51106,0,0,1,3.57226,3.74024C161.11865,308.38281,161.10449,308.49414,161.10449,308.60645Zm-6.16357-.74219h5.2251a2.61786,2.61786,0,0,0-5.2251,0Z" />
  <path
     id="path221"
     d="M169.9248,307.71v4.27246h-.99462v-4.17383a2.05725,2.05725,0,0,0-2.21338-2.35351,2.41549,2.41549,0,0,0-2.57715,2.66113v3.86621H163.145v-7.36816h.95264v1.35937a3.09636,3.09636,0,0,1,2.80127-1.415A2.82032,2.82032,0,0,1,169.9248,307.71Z" />
  <path
     id="path223"
     d="M179.37451,301.58887v10.39355h-.95263v-1.457a3.19,3.19,0,0,1-2.84327,1.52734,3.74788,3.74788,0,0,1,0-7.49414,3.21675,3.21675,0,0,1,2.80127,1.457v-4.42676Zm-.98047,6.71a2.74159,2.74159,0,1,0-2.73144,2.87109A2.6948,2.6948,0,0,0,178.394,308.29883Z" />
  <path
     id="path225"
     d="M181.12012,311.1416l.44824-.78418a4.4529,4.4529,0,0,0,2.61914.82617c1.40088,0,1.9751-.47558,1.9751-1.2041,0-1.91894-4.77637-.40625-4.77637-3.32031,0-1.2041,1.03662-2.10059,2.91357-2.10059a4.98624,4.98624,0,0,1,2.60547.68653l-.43457.79785a3.77476,3.77476,0,0,0-2.1709-.62988c-1.33056,0-1.91894.51757-1.91894,1.21875,0,1.98828,4.77637.49023,4.77637,3.31933,0,1.27442-1.12061,2.10156-3.03955,2.10156A4.91948,4.91948,0,0,1,181.12012,311.1416Z" />
  <path
     id="path227"
     d="M200.12207,308.29883a3.5759,3.5759,0,0,1-3.66992,3.7539,3.19056,3.19056,0,0,1-2.84326-1.52734v1.457h-.95264V301.58887h.99463v4.42676a3.21675,3.21675,0,0,1,2.80127-1.457A3.56409,3.56409,0,0,1,200.12207,308.29883Zm-.99414,0a2.74835,2.74835,0,1,0-2.74561,2.87109A2.70573,2.70573,0,0,0,199.12793,308.29883Z" />
  <path
     id="path229"
     d="M208.12988,304.61426l-3.68408,8.251c-.61621,1.44239-1.40088,1.9043-2.45117,1.9043a2.52072,2.52072,0,0,1-1.793-.67187l.4624-.74219a1.83762,1.83762,0,0,0,1.34473.55957c.6582,0,1.10644-.30762,1.52637-1.23242l.32226-.71387-3.2915-7.35449h1.03662L204.376,310.876l2.77343-6.26172Z" />
  <path
     id="path231"
     d="M219.60986,308.60645h-6.16357a2.72771,2.72771,0,0,0,2.8999,2.56347,2.90282,2.90282,0,0,0,2.25488-.96679l.56055.64453a3.895,3.895,0,0,1-6.70947-2.54883,3.5485,3.5485,0,0,1,3.59961-3.74024,3.51106,3.51106,0,0,1,3.57226,3.74024C219.624,308.38281,219.60986,308.49414,219.60986,308.60645Zm-6.16357-.74219h5.2251a2.61786,2.61786,0,0,0-5.2251,0Z" />
  <path
     id="path233"
     d="M227.19727,309.167c0,1.63867-1.19043,2.89942-3.55811,2.89942a5.09857,5.09857,0,0,1-3.52978-1.26075l.49023-.79785a4.29651,4.29651,0,0,0,3.03955,1.13379c1.625,0,2.52148-.75586,2.52148-1.97461,0-1.17676-.82617-1.94726-2.64746-1.94726H222.813v-.74219l2.71728-3.4043h-5.01464v-.89648h6.30371v.71484l-2.77393,3.48828C226.14648,306.49121,227.19727,307.59766,227.19727,309.167Z" />
  <path
     id="path235"
     d="M229.47607,302.17676h3.99219c3.1377,0,5.25293,2.01758,5.25293,4.90332s-2.11523,4.90234-5.25293,4.90234h-3.99219Zm3.93653,8.90918c2.605,0,4.28613-1.65332,4.28613-4.00586,0-2.35352-1.68115-4.00684-4.28613-4.00684h-2.8999v8.0127Z" />
  <path
     id="path237"
     d="M241.48438,302.12793h-2.00831v-.52246h4.62061v.52246h-2.0083v5.19238h-.604Z" />
  <path
     id="path239"
     d="M250.99316,301.60547v5.71484h-.57959V302.749l-2.24462,3.84473h-.28565l-2.24512-3.82031v4.54687h-.57959v-5.71484h.498l2.48145,4.2373,2.45752-4.2373Z" />
  <path
     id="path241"
     d="M341.57227,310.792l.40625-.79883a4.81457,4.81457,0,0,0,3.23632,1.19043c1.835,0,2.63282-.7705,2.63282-1.73632,0-2.68946-6.03711-1.03711-6.03711-4.665,0-1.44239,1.12011-2.68946,3.61425-2.68946a5.52839,5.52839,0,0,1,3.03907.86914l-.34961.82618a5.04483,5.04483,0,0,0-2.68946-.8125c-1.793,0-2.59179.79882-2.59179,1.77929,0,2.68946,6.03711,1.06446,6.03711,4.63575,0,1.44335-1.14844,2.67578-3.65528,2.67578A5.31961,5.31961,0,0,1,341.57227,310.792Z" />
  <path
     id="path243"
     d="M354.791,311.53418a2.365,2.365,0,0,1-1.55469.51855,1.95215,1.95215,0,0,1-2.15723-2.14355v-4.4541h-1.3164v-.84082h1.3164v-1.61035h.99512v1.61035h2.24121v.84082h-2.24121v4.39844a1.18,1.18,0,0,0,1.27441,1.34472,1.6429,1.6429,0,0,0,1.09278-.3789Z" />
  <path
     id="path245"
     d="M362.15527,307.416v4.5664h-.95214V310.834a2.7672,2.7672,0,0,1-2.53516,1.21875c-1.667,0-2.68945-.86914-2.68945-2.14355,0-1.13477.72851-2.08691,2.84375-2.08691h2.33886V307.374c0-1.26074-.71386-1.94726-2.08691-1.94726a3.75423,3.75423,0,0,0-2.45117.86816l-.44825-.74219a4.67973,4.67973,0,0,1,2.99708-.99414C361.07715,304.55859,362.15527,305.51074,362.15527,307.416Zm-.99414,2.35351v-1.20508h-2.31152c-1.42871,0-1.89063.56055-1.89063,1.31641,0,.85449.68653,1.38672,1.86329,1.38672A2.35779,2.35779,0,0,0,361.16113,309.76953Z" />
  <path
     id="path247"
     d="M371.63379,307.71v4.27246h-.99414v-4.17383a2.05712,2.05712,0,0,0-2.21289-2.35351,2.416,2.416,0,0,0-2.57813,2.66113v3.86621h-.99414v-7.36816h.95215v1.35937a3.09721,3.09721,0,0,1,2.80176-1.415A2.82,2.82,0,0,1,371.63379,307.71Z" />
  <path
     id="path249"
     d="M381.084,301.58887v10.39355h-.95214v-1.457a3.19136,3.19136,0,0,1-2.84375,1.52734,3.74788,3.74788,0,0,1,0-7.49414,3.217,3.217,0,0,1,2.80175,1.457v-4.42676Zm-.98046,6.71a2.74136,2.74136,0,1,0-2.73145,2.87109A2.69481,2.69481,0,0,0,380.10352,308.29883Z" />
  <path
     id="path251"
     d="M389.41309,307.416v4.5664h-.95215V310.834a2.76719,2.76719,0,0,1-2.53516,1.21875c-1.667,0-2.68945-.86914-2.68945-2.14355,0-1.13477.72851-2.08691,2.84375-2.08691H388.419V307.374c0-1.26074-.71387-1.94726-2.08692-1.94726a3.75423,3.75423,0,0,0-2.45117.86816l-.44824-.74219a4.67968,4.67968,0,0,1,2.99707-.99414C388.335,304.55859,389.41309,305.51074,389.41309,307.416Zm-.99414,2.35351v-1.20508h-2.31153c-1.42871,0-1.89062.56055-1.89062,1.31641,0,.85449.68652,1.38672,1.86328,1.38672A2.35779,2.35779,0,0,0,388.419,309.76953Z" />
  <path
     id="path253"
     d="M395.82422,304.55859v.9668c-.084,0-.168-.01465-.23828-.01465-1.541,0-2.47949.98047-2.47949,2.71778v3.7539h-.99415v-7.36816h.95215v1.44336A2.78012,2.78012,0,0,1,395.82422,304.55859Z" />
  <path
     id="path255"
     d="M404.26758,301.58887v10.39355h-.95215v-1.457a3.19136,3.19136,0,0,1-2.84375,1.52734,3.74788,3.74788,0,0,1,0-7.49414,3.217,3.217,0,0,1,2.80176,1.457v-4.42676Zm-.98047,6.71a2.74135,2.74135,0,1,0-2.73145,2.87109A2.69481,2.69481,0,0,0,403.28711,308.29883Z" />
  <path
     id="path257"
     d="M417.4834,307.71v4.27246h-.99414v-4.17383a2.05712,2.05712,0,0,0-2.21289-2.35351,2.416,2.416,0,0,0-2.57813,2.66113v3.86621h-.99414V301.58887h.99414v4.31445a3.11554,3.11554,0,0,1,2.75977-1.34473A2.82,2.82,0,0,1,417.4834,307.71Z" />
  <path
     id="path259"
     d="M419.46777,308.29883a3.74708,3.74708,0,1,1,3.75391,3.7539A3.62393,3.62393,0,0,1,419.46777,308.29883Zm6.48536,0a2.74136,2.74136,0,1,0-2.73145,2.87109A2.68722,2.68722,0,0,0,425.95313,308.29883Z" />
  <path
     id="path261"
     d="M432.86719,311.53418a2.365,2.365,0,0,1-1.55469.51855,1.95215,1.95215,0,0,1-2.15723-2.14355v-4.4541h-1.3164v-.84082h1.3164v-1.61035h.99512v1.61035h2.24121v.84082h-2.24121v4.39844a1.18,1.18,0,0,0,1.27441,1.34472,1.6429,1.6429,0,0,0,1.09278-.3789Z" />
  <path
     id="path263"
     d="M440.82031,308.60645h-6.16308a2.72756,2.72756,0,0,0,2.89941,2.56347,2.90561,2.90561,0,0,0,2.25586-.96679l.55957.64453a3.89463,3.89463,0,0,1-6.709-2.54883,3.54822,3.54822,0,0,1,3.59961-3.74024,3.51106,3.51106,0,0,1,3.57226,3.74024C440.835,308.38281,440.82031,308.49414,440.82031,308.60645Zm-6.16308-.74219h5.22461a2.6176,2.6176,0,0,0-5.22461,0Z" />
  <path
     id="path265"
     d="M449.64063,307.71v4.27246h-.99415v-4.17383a2.05712,2.05712,0,0,0-2.21289-2.35351,2.416,2.416,0,0,0-2.57812,2.66113v3.86621h-.99414v-7.36816h.95215v1.35937a3.09719,3.09719,0,0,1,2.80175-1.415A2.82,2.82,0,0,1,449.64063,307.71Z" />
  <path
     id="path267"
     d="M459.09082,301.58887v10.39355h-.95215v-1.457a3.19136,3.19136,0,0,1-2.84375,1.52734,3.74788,3.74788,0,0,1,0-7.49414,3.21817,3.21817,0,0,1,2.80176,1.457v-4.42676Zm-.98047,6.71a2.74135,2.74135,0,1,0-2.73144,2.87109A2.69481,2.69481,0,0,0,458.11035,308.29883Z" />
  <path
     id="path269"
     d="M460.83691,311.1416l.44825-.78418a4.4517,4.4517,0,0,0,2.61914.82617c1.40136,0,1.97558-.47558,1.97558-1.2041,0-1.91894-4.77734-.40625-4.77734-3.32031,0-1.2041,1.03711-2.10059,2.91406-2.10059a4.98753,4.98753,0,0,1,2.60547.68653l-.43457.79785a3.77476,3.77476,0,0,0-2.1709-.62988c-1.33105,0-1.91894.51757-1.91894,1.21875,0,1.98828,4.77636.49023,4.77636,3.31933,0,1.27442-1.12011,2.10156-3.03906,2.10156A4.92215,4.92215,0,0,1,460.83691,311.1416Z" />
  <circle
     id="circle311"
     r="11.30928"
     cy="222.78175"
     cx="371.35379"
     class="cls-4" />
  <circle
     id="circle313"
     r="3.1666"
     cy="238.16237"
     cx="422.01935"
     class="cls-4" />
  <polyline
     id="polyline315"
     points="409.757 131.5 413.365 131.5 413.365 142.353 414.5 143.5 414.809 189.5 412.5 189.5 412.5 206.5 414.809 206.5 414.809 228.952 403.262 228.952"
     class="cls-4" />
  <polyline
     id="polyline317"
     points="403.262 228.952 391.715 228.952 391.5 206.5 394.5 206.5 394.5 189.5 391.5 189.5 391.5 143.5 393.159 142.353 393.159 131.5 396.767 131.5"
     class="cls-4" />
  <polygon
     id="polygon319"
     points="405.427 279.469 410.479 271.419 418.417 271.531 418.417 257.097 413.365 257.097 413.365 254.932 414.809 254.932 414.809 228.952 391.715 228.952 391.715 254.932 393.159 254.932 393.159 257.097 388.107 257.097 388.107 271.531 396.045 271.419 401.097 279.469 405.427 279.469"
     class="cls-4" />
  <polyline
     id="polyline321"
     points="403.984 279.469 403.984 276.582 405.427 276.582 405.427 272.974 407.592 271.531 407.592 228.952 398.932 228.952 398.932 271.531 401.097 272.974 401.097 276.582 402.54 276.582 402.54 279.469 403.984 279.469"
     class="cls-4" />
  <polyline
     id="polyline323"
     points="403.41 228.952 395.561 228.952 395.561 228.37 396.988 227.788 396.5 120.5 389.456 120.5 389.456 72.748 384.5 65.5 380.5 65.5 380.5 64.5 380.289 54.5 383.5 46.5 383.75 30.75"
     class="cls-4" />
  <polyline
     id="polyline325"
     points="403.41 228.952 411.259 228.952 411.259 228.37 409.832 227.788 409.5 120.5 416.831 120.5 416.831 72.896 422.5 65.5 425.5 65.5 425.5 64.5 425.5 55.5 422.5 46.5 422.5 30.083 422.5 26.5"
     class="cls-4" />
  <line
     id="line327"
     y2="101.5"
     x2="174.11372"
     y1="101.5"
     x1="160.5"
     class="cls-4" />
  <rect
     id="rect329"
     height="6.82375"
     width="43.50143"
     y="24.43104"
     x="144.92045"
     class="cls-6" />
  <polyline
     id="polyline331"
     points="154 27.169 154 24 180.374 24 180.374 60 154 60 154 27.169"
     class="cls-4" />
  <rect
     id="rect333"
     height="36"
     width="12.62911"
     y="24"
     x="160.69222"
     class="cls-4" />
  <path
     id="path335"
     d="M180.45547,58H183.396c5.08395-6.723,0-11.00122,0-11.00122V30.20745H216"
     class="cls-4" />
  <path
     id="path337"
     d="M153.91892,58h-3.66218s-4.44846-6.723.6355-11.00122V30.20745H120"
     class="cls-4" />
  <rect
     id="rect339"
     height="6.82375"
     width="43.50143"
     y="24.43104"
     x="380.92045"
     class="cls-6" />
  <polyline
     id="polyline341"
     points="390 27.609 390 24 416.374 24 416.374 65 390 65 390 27.609"
     class="cls-4" />
  <rect
     id="rect343"
     height="41"
     width="12.62911"
     y="24"
     x="396.69222"
     class="cls-4" />
  <path
     id="path345"
     d="M416.45547,58H419.396c5.084-6.723,0-11.00122,0-11.00122V30.20745H452"
     class="cls-4" />
  <path
     id="path347"
     d="M389.91892,58h-3.66218s-4.44846-6.723.6355-11.00122V30.20745H356"
     class="cls-4" />
  <line
     id="line349"
     y2="60.5"
     x2="189.5"
     y1="60.5"
     x1="144.5"
     class="cls-4" />
  <line
     id="line351"
     y2="73.5"
     x2="180.5"
     y1="73.5"
     x1="153.5"
     class="cls-4" />
  <line
     id="line353"
     y2="65.5"
     x2="424"
     y1="65.5"
     x1="383"
     class="cls-4" />
  <line
     id="line355"
     y2="28.79315"
     x2="634.51012"
     y1="28.79315"
     x1="627.5967"
     class="cls-7" />
  <line
     id="line357"
     y2="283.15426"
     x2="634.51012"
     y1="283.15426"
     x1="627.5967"
     class="cls-7" />
  <line
     id="line359"
     y2="129.76138"
     x2="634.51012"
     y1="129.76138"
     x1="627.5967"
     class="cls-7" />
  <path
     id="path361"
     d="M652.66211,31.62012v.61426h-6.42188v-.48047l3.95118-3.9253c1.10839-1.1084,1.32226-1.76269,1.32226-2.47021,0-1.17481-.81445-1.90918-2.36328-1.90918a3.32385,3.32385,0,0,0-2.68359,1.08154l-.48047-.42724a4.11416,4.11416,0,0,1,3.21777-1.28174c1.8291,0,3.00391.94775,3.00391,2.46972,0,.89454-.29395,1.68262-1.52246,2.89746l-3.44434,3.43116Z" />
  <path
     id="path363"
     d="M660.17676,31.62012v.61426h-6.42188v-.48047l3.95117-3.9253c1.1084-1.1084,1.32227-1.76269,1.32227-2.47021,0-1.17481-.81445-1.90918-2.36328-1.90918a3.32383,3.32383,0,0,0-2.68359,1.08154l-.48047-.42724a4.11416,4.11416,0,0,1,3.21777-1.28174c1.8291,0,3.00391.94775,3.00391,2.46972,0,.89454-.29395,1.68262-1.52246,2.89746l-3.44434,3.43116Z" />
  <path
     id="path365"
     d="M661.40234,27.56152c0-2.92431,1.50879-4.73974,3.65821-4.73974s3.6582,1.81543,3.6582,4.73974c0,2.92383-1.50879,4.73975-3.6582,4.73975S661.40234,30.48535,661.40234,27.56152Zm6.63575,0c0-2.60351-1.21485-4.1123-2.97754-4.1123S662.083,24.958,662.083,27.56152s1.21484,4.11231,2.97754,4.11231S668.03809,30.165,668.03809,27.56152Z" />
  <path
     id="path367"
     d="M670.06445,24.397a2.25414,2.25414,0,1,1,2.24317,2.10987A2.10715,2.10715,0,0,1,670.06445,24.397Zm3.99219,0a1.745,1.745,0,1,0-1.749,1.65576A1.64177,1.64177,0,0,0,674.05664,24.397Z" />
  <path
     id="path369"
     d="M675.791,27.56152a4.6678,4.6678,0,0,1,4.84668-4.73974,4.45639,4.45639,0,0,1,3.32421,1.29492l-.42675.44043a3.91456,3.91456,0,0,0-2.8711-1.10791,4.11307,4.11307,0,1,0,0,8.22461,3.92689,3.92689,0,0,0,2.8711-1.12158l.42675.44043a4.46628,4.46628,0,0,1-3.32421,1.30859A4.6678,4.6678,0,0,1,675.791,27.56152Z" />
  <path
     id="path371"
     d="M652.43457,284.88574c0,1.54883-1.12109,2.69629-3.27051,2.69629a4.4912,4.4912,0,0,1-3.29785-1.25488l.34668-.52051a3.9847,3.9847,0,0,0,2.95117,1.14844c1.68164,0,2.57617-.80176,2.57617-2.06934,0-1.25586-.85449-2.06933-2.72363-2.06933h-.58691v-.49414l2.76367-3.53809h-4.98047v-.61426h5.86133v.48047l-2.80371,3.5918C651.39355,282.29492,652.43457,283.36328,652.43457,284.88574Z" />
  <path
     id="path373"
     d="M653.875,282.84277c0-2.92382,1.50879-4.74023,3.6582-4.74023s3.65821,1.81641,3.65821,4.74023-1.50879,4.73926-3.65821,4.73926S653.875,285.7666,653.875,282.84277Zm6.63574,0c0-2.60351-1.21484-4.1123-2.97754-4.1123s-2.97754,1.50879-2.97754,4.1123,1.21485,4.11231,2.97754,4.11231S660.51074,285.44629,660.51074,282.84277Z" />
  <path
     id="path375"
     d="M662.53711,279.67871a2.25416,2.25416,0,1,1,2.24316,2.10938A2.10762,2.10762,0,0,1,662.53711,279.67871Zm3.99219,0a1.745,1.745,0,1,0-1.749,1.65527A1.6415,1.6415,0,0,0,666.5293,279.67871Z" />
  <path
     id="path377"
     d="M668.2627,282.84277a4.66819,4.66819,0,0,1,4.84668-4.74023,4.45522,4.45522,0,0,1,3.32421,1.2959l-.42675.44043a3.913,3.913,0,0,0-2.8711-1.1084,4.11307,4.11307,0,1,0,0,8.22461,3.92537,3.92537,0,0,0,2.8711-1.12207l.42675.4414a4.46741,4.46741,0,0,1-3.32421,1.30762A4.66741,4.66741,0,0,1,668.2627,282.84277Z" />
  <path
     id="path379"
     d="M648.77637,124.0957v9.34619h-.68067V124.71h-2.2832v-.61426Z" />
  <path
     id="path381"
     d="M658.93555,130.85156h-1.96192v2.59033h-.668v-2.59033h-5.32714v-.49365l5.07324-6.26221h.76074L651.833,130.251h4.48633v-2.28321h.65429V130.251h1.96192Z" />
  <path
     id="path383"
     d="M667.66406,130.85156h-1.96191v2.59033h-.668v-2.59033H659.707v-.49365l5.07324-6.26221h.76075l-4.9795,6.15528h4.48633v-2.28321h.6543V130.251h1.96191Z" />
  <path
     id="path385"
     d="M668.08984,125.60449a2.25414,2.25414,0,1,1,2.24317,2.10987A2.10714,2.10714,0,0,1,668.08984,125.60449Zm3.99219,0a1.745,1.745,0,1,0-1.749,1.65576A1.64177,1.64177,0,0,0,672.082,125.60449Z" />
  <path
     id="path387"
     d="M673.81543,128.769a4.6678,4.6678,0,0,1,4.84668-4.73974,4.4564,4.4564,0,0,1,3.32422,1.29492l-.42676.44043a3.91455,3.91455,0,0,0-2.87109-1.10791,4.11307,4.11307,0,1,0,0,8.22461,3.92688,3.92688,0,0,0,2.87109-1.12158l.42676.44043a4.46629,4.46629,0,0,1-3.32422,1.30859A4.66781,4.66781,0,0,1,673.81543,128.769Z" />
  <line
     id="line389"
     y2="79.65822"
     x2="634.59652"
     y1="79.65822"
     x1="627.68311"
     class="cls-7" />
  <path
     id="path391"
     d="M648.86621,73.99219v9.34619h-.68066V74.60645h-2.28321v-.61426Z" />
  <path
     id="path393"
     d="M658.251,80.7749c0,1.62891-1.34864,2.63037-3.55078,2.63037-2.20313,0-3.5254-1.00146-3.5254-2.63037a2.34525,2.34525,0,0,1,1.98926-2.32324,2.13656,2.13656,0,0,1-1.65527-2.10937c0-1.49561,1.25488-2.41651,3.19141-2.41651,1.93554,0,3.21777.9209,3.21777,2.41651a2.1473,2.1473,0,0,1-1.68262,2.10937A2.36693,2.36693,0,0,1,658.251,80.7749Zm-.68067,0c0-1.2417-1.06836-2.02929-2.87011-2.02929-1.80274,0-2.84375.78759-2.84375,2.02929,0,1.25489,1.041,2.043,2.84375,2.043C656.502,82.81787,657.57031,82.02979,657.57031,80.7749Zm-2.87011-2.59033c1.58886,0,2.53613-.70752,2.53613-1.81543,0-1.14844-.98731-1.856-2.53613-1.856s-2.51075.70752-2.51075,1.84229C652.18945,77.47705,653.11133,78.18457,654.7002,78.18457Z" />
  <path
     id="path395"
     d="M665.89941,82.72412v.61426h-6.42187v-.48047l3.95117-3.92529c1.1084-1.1084,1.32227-1.7627,1.32227-2.47022,0-1.1748-.81446-1.90918-2.36328-1.90918a3.32384,3.32384,0,0,0-2.6836,1.08155l-.48047-.42725a4.1142,4.1142,0,0,1,3.21778-1.28174c1.8291,0,3.0039.94776,3.0039,2.46973,0,.89453-.29394,1.68262-1.52246,2.89746l-3.44433,3.43115Z" />
  <path
     id="path397"
     d="M666.9375,75.501a2.25413,2.25413,0,1,1,2.24316,2.10986A2.10714,2.10714,0,0,1,666.9375,75.501Zm3.99219,0a1.745,1.745,0,1,0-1.749,1.65576A1.64178,1.64178,0,0,0,670.92969,75.501Z" />
  <path
     id="path399"
     d="M672.66406,78.66553a4.66781,4.66781,0,0,1,4.84668-4.73975A4.45643,4.45643,0,0,1,680.835,75.2207l-.42676.44043a3.91456,3.91456,0,0,0-2.87109-1.10791,4.11307,4.11307,0,1,0,0,8.22461,3.92681,3.92681,0,0,0,2.87109-1.12158l.42676.44043a4.46625,4.46625,0,0,1-3.32422,1.30859A4.6678,4.6678,0,0,1,672.66406,78.66553Z" />
  <line
     id="line401"
     y2="181.0265"
     x2="634.51012"
     y1="181.0265"
     x1="627.5967"
     class="cls-7" />
  <path
     id="path403"
     d="M648.77637,175.36328v9.3457h-.68067v-8.73144h-2.2832v-.61426Z" />
  <path
     id="path405"
     d="M651.13867,180.03613c0-2.92383,1.50879-4.74023,3.65821-4.74023s3.6582,1.8164,3.6582,4.74023-1.50879,4.73926-3.6582,4.73926S651.13867,182.96,651.13867,180.03613Zm6.63574,0c0-2.60351-1.21484-4.1123-2.97753-4.1123s-2.97754,1.50879-2.97754,4.1123,1.21484,4.11231,2.97754,4.11231S657.77441,182.63965,657.77441,180.03613Z" />
  <path
     id="path407"
     d="M666.7832,181.959a2.83934,2.83934,0,0,1-3.11035,2.81641c-2.457,0-3.752-1.76172-3.752-4.68555,0-3.165,1.68262-4.79394,4.15234-4.79394a4.12274,4.12274,0,0,1,2.123.48144l-.28027.54688a3.46281,3.46281,0,0,0-1.84278-.42676c-2.09668,0-3.47168,1.375-3.47168,4.085a7.50008,7.50008,0,0,0,.08008,1.12207,2.92923,2.92923,0,0,1,2.97754-1.92285C665.52832,179.18164,666.7832,180.27637,666.7832,181.959Zm-.68066.0127c0-1.335-.96094-2.20313-2.53711-2.20313a2.352,2.352,0,0,0-2.58984,2.23047c0,1.09473.92089,2.18946,2.66992,2.18946A2.21536,2.21536,0,0,0,666.10254,181.97168Z" />
  <path
     id="path409"
     d="M667.48926,176.87207a2.25416,2.25416,0,1,1,2.24316,2.10938A2.10761,2.10761,0,0,1,667.48926,176.87207Zm3.99219,0a1.745,1.745,0,1,0-1.749,1.65527A1.6415,1.6415,0,0,0,671.48145,176.87207Z" />
  <path
     id="path411"
     d="M673.21484,180.03613a4.6682,4.6682,0,0,1,4.84668-4.74023,4.45523,4.45523,0,0,1,3.32422,1.2959l-.42676.44043a3.913,3.913,0,0,0-2.87109-1.1084,4.11307,4.11307,0,1,0,0,8.22461,3.92533,3.92533,0,0,0,2.87109-1.12207l.42676.4414a4.46742,4.46742,0,0,1-3.32422,1.30762A4.66741,4.66741,0,0,1,673.21484,180.03613Z" />
  <line
     id="line413"
     y2="231.91882"
     x2="634.51012"
     y1="231.91882"
     x1="627.5967"
     class="cls-7" />
  <path
     id="path415"
     d="M653.28906,232.84863a2.83934,2.83934,0,0,1-3.11035,2.81641c-2.457,0-3.752-1.76172-3.752-4.68555,0-3.165,1.68262-4.79394,4.15234-4.79394a4.12274,4.12274,0,0,1,2.123.48144l-.28027.54688a3.46281,3.46281,0,0,0-1.84278-.42676c-2.09668,0-3.47168,1.375-3.47168,4.085a7.50017,7.50017,0,0,0,.08008,1.12207,2.92923,2.92923,0,0,1,2.97754-1.92285C652.03418,230.07129,653.28906,231.166,653.28906,232.84863Zm-.68066.0127c0-1.335-.96094-2.20313-2.53711-2.20313a2.352,2.352,0,0,0-2.58984,2.23047c0,1.09473.92089,2.18946,2.66992,2.18946A2.21536,2.21536,0,0,0,652.6084,232.86133Z" />
  <path
     id="path417"
     d="M661.48438,233.03516c0,1.6289-1.34766,2.62988-3.55079,2.62988s-3.52539-1.001-3.52539-2.62988a2.34526,2.34526,0,0,1,1.98926-2.32325,2.13578,2.13578,0,0,1-1.65527-2.10937c0-1.49512,1.25488-2.417,3.1914-2.417,1.93555,0,3.21778.92187,3.21778,2.417a2.14653,2.14653,0,0,1-1.68262,2.10937A2.36731,2.36731,0,0,1,661.48438,233.03516Zm-.68067,0c0-1.24121-1.06836-2.0293-2.87012-2.0293-1.80273,0-2.84375.78809-2.84375,2.0293,0,1.25488,1.041,2.043,2.84375,2.043C659.73535,235.07813,660.80371,234.29,660.80371,233.03516Zm-2.87012-2.58985c1.58887,0,2.53614-.708,2.53614-1.8164,0-1.14844-.98731-1.85547-2.53614-1.85547s-2.51074.707-2.51074,1.84277C655.42285,229.7373,656.34473,230.44531,657.93359,230.44531Z" />
  <path
     id="path419"
     d="M662.77734,227.76172a2.25417,2.25417,0,1,1,2.24317,2.10937A2.10762,2.10762,0,0,1,662.77734,227.76172Zm3.99219,0a1.745,1.745,0,1,0-1.749,1.65527A1.6415,1.6415,0,0,0,666.76953,227.76172Z" />
  <path
     id="path421"
     d="M668.50293,230.92578a4.6682,4.6682,0,0,1,4.84668-4.74023,4.45827,4.45827,0,0,1,3.32422,1.29492l-.42676.44141a3.913,3.913,0,0,0-2.87109-1.1084,4.11307,4.11307,0,1,0,0,8.22461,3.92536,3.92536,0,0,0,2.87109-1.12207l.42676.4414a4.46742,4.46742,0,0,1-3.32422,1.30762A4.66742,4.66742,0,0,1,668.50293,230.92578Z" />
  <line
     id="line423"
     y2="104.13094"
     x2="630.75989"
     y1="104.13094"
     x1="627.5967"
     class="cls-7" />
  <line
     id="line425"
     y2="54.02778"
     x2="630.79942"
     y1="54.02778"
     x1="627.63624"
     class="cls-7" />
  <line
     id="line427"
     y2="155.39606"
     x2="630.75989"
     y1="155.39606"
     x1="627.5967"
     class="cls-7" />
  <line
     id="line429"
     y2="206.28838"
     x2="630.75989"
     y1="206.28838"
     x1="627.5967"
     class="cls-7" />
  <line
     id="line431"
     y2="257.54926"
     x2="630.75989"
     y1="257.54926"
     x1="627.5967"
     class="cls-7" />
  <path
     id="path433"
     d="M575.2793,29.644h-1.96289v2.59034h-.667V29.644h-5.32714v-.49365l5.07324-6.26221h.76074l-4.97949,6.15528h4.48535V26.76025h.6543v2.28321h1.96289Z" />
  <path
     id="path435"
     d="M582.66016,27.50781c0,3.16455-1.68164,4.79346-4.15235,4.79346a4.12736,4.12736,0,0,1-2.123-.481l.28125-.54736a3.45468,3.45468,0,0,0,1.84179.42725c2.09668,0,3.47168-1.375,3.47168-4.08545a7.36145,7.36145,0,0,0-.08008-1.12159,2.9284,2.9284,0,0,1-2.97753,1.92286c-1.86915,0-3.124-1.09473-3.124-2.77735a2.8397,2.8397,0,0,1,3.11035-2.81689C581.36523,22.82178,582.66016,24.584,582.66016,27.50781Zm-1.05469-1.90918c0-1.09472-.9209-2.18945-2.66992-2.18945a2.2155,2.2155,0,0,0-2.457,2.21631c0,1.335.96191,2.20312,2.53711,2.20312A2.35218,2.35218,0,0,0,581.60547,25.59863Z" />
  <path
     id="path437"
     d="M590.002,29.604c0,1.54883-1.12207,2.69727-3.27148,2.69727a4.49546,4.49546,0,0,1-3.29883-1.25537l.34766-.52051a3.98469,3.98469,0,0,0,2.95117,1.14844c1.68164,0,2.57617-.80127,2.57617-2.06983,0-1.25488-.85351-2.06933-2.72266-2.06933h-.58789v-.49414l2.76368-3.53809H583.7793v-.61426h5.86133v.481l-2.80372,3.59131C588.96,27.01416,590.002,28.082,590.002,29.604Z" />
  <path
     id="path439"
     d="M598.543,27.62793l-2.09668,2.1499v2.45655h-.68066v-9.3462h.68066v6.0083l5.835-6.0083h.82813l-4.11329,4.2461,4.39356,5.1001h-.82813Z" />
  <path
     id="path441"
     d="M573.49023,284.88574c0,1.54883-1.12109,2.69629-3.27148,2.69629a4.4904,4.4904,0,0,1-3.29687-1.25488l.34667-.52051a3.984,3.984,0,0,0,2.9502,1.14844c1.68359,0,2.57813-.80176,2.57813-2.06934,0-1.25586-.85547-2.06933-2.72461-2.06933h-.58789v-.49414l2.76464-3.53809h-4.98047v-.61426h5.86133v.48047l-2.80371,3.5918C572.44922,282.29492,573.49023,283.36328,573.49023,284.88574Z" />
  <path
     id="path443"
     d="M574.92969,282.84277c0-2.92382,1.50976-4.74023,3.6582-4.74023,2.15039,0,3.6582,1.81641,3.6582,4.74023s-1.50781,4.73926-3.6582,4.73926C576.43945,287.582,574.92969,285.7666,574.92969,282.84277Zm6.63672,0c0-2.60351-1.21582-4.1123-2.97852-4.1123-1.76172,0-2.97656,1.50879-2.97656,4.1123s1.21484,4.11231,2.97656,4.11231C580.35059,286.95508,581.56641,285.44629,581.56641,282.84277Z" />
  <path
     id="path445"
     d="M589.58789,284.88574c0,1.54883-1.12109,2.69629-3.27148,2.69629a4.49285,4.49285,0,0,1-3.29786-1.25488l.34668-.52051a3.98636,3.98636,0,0,0,2.95118,1.14844c1.68261,0,2.57714-.80176,2.57714-2.06934,0-1.25586-.85449-2.06933-2.72363-2.06933H585.582v-.49414l2.76367-3.53809h-4.98047v-.61426h5.86133v.48047l-2.80273,3.5918C588.54688,282.29492,589.58789,283.36328,589.58789,284.88574Z" />
  <path
     id="path447"
     d="M598.12891,282.90918l-2.09571,2.14941v2.457h-.68164v-9.34571h.68164v6.00781l5.834-6.00781h.82812L598.583,282.415l4.39258,5.10059h-.82813Z" />
  <path
     id="path449"
     d="M575.2793,130.85156h-1.96289v2.59033h-.667v-2.59033h-5.32714v-.49365l5.07324-6.26221h.76074l-4.97949,6.15528h4.48535v-2.28321h.6543V130.251h1.96289Z" />
  <path
     id="path451"
     d="M578.22754,124.0957v9.34619h-.68066V124.71h-2.28321v-.61426Z" />
  <path
     id="path453"
     d="M587.01172,124.0957v.481l-4.01856,8.86523h-.74707l3.97852-8.73193h-5.24805V126.499h-.667V124.0957Z" />
  <path
     id="path455"
     d="M595.44531,128.83545l-2.0957,2.1499v2.45654H592.669V124.0957h.68066v6.0083l5.835-6.0083h.82715l-4.11133,4.2461,4.39258,5.10009h-.82813Z" />
  <path
     id="path457"
     d="M575.36914,80.74805h-1.96289v2.59033h-.668V80.74805h-5.32617v-.49366l5.07227-6.2622h.76171l-4.98046,6.15527H572.752v-2.2832h.6543v2.2832h1.96289Z" />
  <path
     id="path459"
     d="M582.416,80.6416c0,1.562-1.082,2.76367-3.27149,2.76367a4.48233,4.48233,0,0,1-3.28418-1.25537l.34668-.52051a3.94243,3.94243,0,0,0,2.92383,1.14844c1.72266,0,2.60352-.86816,2.60352-2.10986,0-1.335-.81446-2.14942-3.35059-2.14942h-1.89551l.49414-4.52636h4.95313v.61426h-4.37891l-.36133,3.29785h1.33594C581.375,77.9043,582.416,78.98584,582.416,80.6416Z" />
  <path
     id="path461"
     d="M589.79688,80.6416c0,1.562-1.08106,2.76367-3.27051,2.76367a4.48067,4.48067,0,0,1-3.28418-1.25537l.34668-.52051a3.94076,3.94076,0,0,0,2.92383,1.14844c1.72265,0,2.60351-.86816,2.60351-2.10986,0-1.335-.81445-2.14942-3.35058-2.14942h-1.89649l.49414-4.52636h4.95313v.61426H584.9375l-.36133,3.29785h1.33594C588.75586,77.9043,589.79688,78.98584,589.79688,80.6416Z" />
  <path
     id="path463"
     d="M598.17773,78.73193l-2.0957,2.14991v2.45654h-.68066V73.99219h.68066v6.0083l5.835-6.0083h.82715l-4.11133,4.24609,4.39258,5.1001h-.82812Z" />
  <path
     id="path465"
     d="M573.49023,182.0791c0,1.54883-1.12109,2.69629-3.27148,2.69629a4.49044,4.49044,0,0,1-3.29687-1.25488L567.26855,183a3.984,3.984,0,0,0,2.9502,1.14844c1.68359,0,2.57813-.80176,2.57813-2.06934,0-1.25586-.85547-2.06933-2.72461-2.06933h-.58789v-.49414l2.76464-3.53809h-4.98047v-.61426h5.86133v.48047l-2.80371,3.5918C572.44922,179.48828,573.49023,180.55664,573.49023,182.0791Z" />
  <path
     id="path467"
     d="M581.166,175.36328v.48047l-4.01954,8.86523h-.74707l3.97852-8.73144h-5.24707v1.78906h-.668v-2.40332Z" />
  <path
     id="path469"
     d="M589.06738,179.98242c0,3.16406-1.68261,4.793-4.15234,4.793a4.12246,4.12246,0,0,1-2.123-.48047l.28028-.54687a3.4605,3.4605,0,0,0,1.84277.42675c2.09668,0,3.47168-1.375,3.47168-4.085a7.49189,7.49189,0,0,0-.08008-1.12207,2.92921,2.92921,0,0,1-2.97754,1.92286c-1.86914,0-3.124-1.09473-3.124-2.77735a2.84007,2.84007,0,0,1,3.11035-2.81738C587.77246,175.2959,589.06738,177.05859,589.06738,179.98242Zm-1.05468-1.90918c0-1.09472-.9209-2.18945-2.6709-2.18945a2.21485,2.21485,0,0,0-2.45606,2.21582c0,1.33594.96192,2.20312,2.53614,2.20312A2.35217,2.35217,0,0,0,588.0127,178.07324Z" />
  <path
     id="path471"
     d="M597.63477,180.10254l-2.09571,2.14941v2.457h-.68164v-9.3457h.68164v6.00781l5.834-6.00781h.82812l-4.1123,4.24512,4.39258,5.10058h-.82715Z" />
  <path
     id="path473"
     d="M573.49023,232.96875c0,1.54883-1.12109,2.69629-3.27148,2.69629a4.49044,4.49044,0,0,1-3.29687-1.25488l.34667-.52051a3.984,3.984,0,0,0,2.9502,1.14844c1.68359,0,2.57813-.80176,2.57813-2.06934,0-1.25586-.85547-2.07031-2.72461-2.07031h-.58789v-.49317l2.76464-3.53808h-4.98047v-.61426h5.86133v.48047l-2.80371,3.5918C572.44922,230.37793,573.49023,231.44629,573.49023,232.96875Z" />
  <path
     id="path475"
     d="M582.72754,233.00879h-1.96289v2.58984h-.667v-2.58984h-5.32813v-.49414l5.07422-6.26172h.76074l-4.97949,6.1543h4.48535V230.125h.6543v2.28223h1.96289Z" />
  <path
     id="path477"
     d="M585.67578,226.25293v9.3457h-.68164v-8.73144h-2.2832v-.61426Z" />
  <path
     id="path479"
     d="M595.13867,230.99219l-2.0957,2.14941v2.457h-.68067v-9.3457h.68067v6.00781l5.835-6.00781h.82715l-4.11133,4.24512,4.39258,5.10058h-.82813Z" />
  <line
     id="line481"
     y2="28.79315"
     x2="609.93633"
     y1="28.79315"
     x1="616.84976"
     class="cls-7" />
  <line
     id="line483"
     y2="283.15426"
     x2="609.93633"
     y1="283.15426"
     x1="616.84976"
     class="cls-7" />
  <line
     id="line485"
     y2="129.76138"
     x2="609.93633"
     y1="129.76138"
     x1="616.84976"
     class="cls-7" />
  <line
     id="line487"
     y2="79.65822"
     x2="609.84993"
     y1="79.65822"
     x1="616.76334"
     class="cls-7" />
  <line
     id="line489"
     y2="181.0265"
     x2="609.93633"
     y1="181.0265"
     x1="616.84976"
     class="cls-7" />
  <line
     id="line491"
     y2="231.91882"
     x2="609.93633"
     y1="231.91882"
     x1="616.84976"
     class="cls-7" />
  <line
     id="line493"
     y2="104.13094"
     x2="613.68657"
     y1="104.13094"
     x1="616.84976"
     class="cls-7" />
  <line
     id="line495"
     y2="54.02778"
     x2="613.64704"
     y1="54.02778"
     x1="616.81022"
     class="cls-7" />
  <line
     id="line497"
     y2="155.39606"
     x2="613.68657"
     y1="155.39606"
     x1="616.84976"
     class="cls-7" />
  <line
     id="line499"
     y2="206.28838"
     x2="613.68657"
     y1="206.28838"
     x1="616.84976"
     class="cls-7" />
  <line
     id="line501"
     y2="257.54926"
     x2="613.68657"
     y1="257.54926"
     x1="616.84976"
     class="cls-7" />
  <rect
     id="rect503"
     transform="translate(1244.09146 311.94742) rotate(180)"
     height="254.36111"
     width="11.11633"
     y="28.79315"
     x="616.48757"
     class="cls-8" />
</svg>
